Amatic-Bold.ufo
<glyph name="quotedbl" format="1">
  <advance width="702"></advance>
  <unicode hex="0022"></unicode>
  <outline>
    <contour>
      <point x="437" y="1193" type="line" smooth="yes"></point>
      <point x="424" y="1193"></point>
      <point x="408" y="1435"></point>
      <point x="408" y="1531" type="curve" smooth="yes"></point>
      <point x="408" y="1559"></point>
      <point x="441" y="1578"></point>
      <point x="469" y="1578" type="curve" smooth="yes"></point>
      <point x="488" y="1578"></point>
      <point x="498" y="1556"></point>
      <point x="503" y="1531" type="curve"></point>
      <point x="500" y="1433"></point>
      <point x="477" y="1193"></point>
      <point x="444" y="1193" type="curve" smooth="yes"></point>
    </contour>
    <contour>
      <point x="231" y="1193" type="line" smooth="yes"></point>
      <point x="227" y="1193"></point>
      <point x="222" y="1435"></point>
      <point x="222" y="1531" type="curve" smooth="yes"></point>
      <point x="222" y="1559"></point>
      <point x="245" y="1578"></point>
      <point x="263" y="1578" type="curve" smooth="yes"></point>
      <point x="293" y="1578"></point>
      <point x="308" y="1556"></point>
      <point x="312" y="1525" type="curve" smooth="yes"></point>
      <point x="312" y="1521"></point>
      <point x="313" y="1514"></point>
      <point x="313" y="1511" type="curve" smooth="yes"></point>
      <point x="313" y="1407"></point>
      <point x="278" y="1193"></point>
      <point x="238" y="1193" type="curve" smooth="yes"></point>
    </contour>
  </outline>
</glyph>
<glyph name="numbersign" format="1">
  <advance width="748"/>
  <unicode hex="0023"/>
  <outline>
    <contour>
      <point x="676" y="637" type="curve"/>
      <point x="677" y="637" type="line"/>
      <point x="676" y="592"/>
      <point x="628" y="585"/>
      <point x="593" y="586" type="curve" smooth="yes"/>
      <point x="563" y="587" type="line"/>
      <point x="545" y="378"/>
      <point x="507" y="171"/>
      <point x="507" y="-39" type="curve"/>
      <point x="472" y="-81" type="line"/>
      <point x="443" y="-81"/>
      <point x="401" y="-74"/>
      <point x="401" y="-37" type="curve" smooth="yes"/>
      <point x="401" y="171"/>
      <point x="459" y="374"/>
      <point x="466" y="581" type="curve"/>
      <point x="419" y="585"/>
      <point x="371" y="585"/>
      <point x="324" y="585" type="curve"/>
      <point x="274" y="582" type="line"/>
      <point x="262" y="488"/>
      <point x="249" y="-80"/>
      <point x="163" y="-80" type="curve" smooth="yes"/>
      <point x="138" y="-80"/>
      <point x="105" y="-65"/>
      <point x="105" y="-36" type="curve" smooth="yes"/>
      <point x="105" y="170"/>
      <point x="137" y="375"/>
      <point x="176" y="576" type="curve"/>
      <point x="158" y="574"/>
      <point x="137" y="571"/>
      <point x="116" y="571" type="curve" smooth="yes"/>
      <point x="72" y="571"/>
      <point x="31" y="583"/>
      <point x="31" y="637" type="curve" smooth="yes"/>
      <point x="31" y="676"/>
      <point x="81" y="683"/>
      <point x="127" y="683" type="curve" smooth="yes"/>
      <point x="152" y="683"/>
      <point x="176" y="681"/>
      <point x="189" y="681" type="curve"/>
      <point x="204" y="769"/>
      <point x="213" y="859"/>
      <point x="220" y="948" type="curve"/>
      <point x="207" y="947"/>
      <point x="188" y="945"/>
      <point x="169" y="945" type="curve" smooth="yes"/>
      <point x="123" y="945"/>
      <point x="72" y="955"/>
      <point x="72" y="1004" type="curve" smooth="yes"/>
      <point x="72" y="1014" type="line"/>
      <point x="102" y="1047" type="line"/>
      <point x="123" y="1047"/>
      <point x="144" y="1046"/>
      <point x="165" y="1046" type="curve" smooth="yes"/>
      <point x="186" y="1046"/>
      <point x="207" y="1047"/>
      <point x="228" y="1049" type="curve"/>
      <point x="245" y="1185"/>
      <point x="273" y="1320"/>
      <point x="273" y="1457" type="curve" smooth="yes"/>
      <point x="273" y="1468"/>
      <point x="272" y="1481"/>
      <point x="272" y="1494" type="curve" smooth="yes"/>
      <point x="272" y="1530"/>
      <point x="278" y="1567"/>
      <point x="325" y="1567" type="curve" smooth="yes"/>
      <point x="340" y="1567" type="line"/>
      <point x="363" y="1520" type="line"/>
      <point x="363" y="1365"/>
      <point x="328" y="1213"/>
      <point x="326" y="1058" type="curve"/>
      <point x="344" y="1054"/>
      <point x="362" y="1054"/>
      <point x="381" y="1054" type="curve" smooth="yes"/>
      <point x="422" y="1054"/>
      <point x="465" y="1052"/>
      <point x="505" y="1062" type="curve"/>
      <point x="537" y="1219"/>
      <point x="554" y="1377"/>
      <point x="579" y="1535" type="curve"/>
      <point x="592" y="1552"/>
      <point x="610" y="1566"/>
      <point x="632" y="1566" type="curve" smooth="yes"/>
      <point x="652" y="1566"/>
      <point x="680" y="1546"/>
      <point x="680" y="1525" type="curve" smooth="yes"/>
      <point x="680" y="1369"/>
      <point x="611" y="1223"/>
      <point x="607" y="1067" type="curve"/>
      <point x="673" y="1067" type="line"/>
      <point x="716" y="1020" type="line"/>
      <point x="709" y="991"/>
      <point x="698" y="959"/>
      <point x="662" y="959" type="curve"/>
      <point x="595" y="962" type="line"/>
      <point x="576" y="875"/>
      <point x="571" y="786"/>
      <point x="570" y="698" type="curve"/>
      <point x="577" y="698"/>
      <point x="584" y="699"/>
      <point x="591" y="699" type="curve" smooth="yes"/>
      <point x="632" y="699"/>
      <point x="676" y="687"/>
    </contour>
    <contour>
      <point x="282" y="686" type="curve"/>
      <point x="290" y="685"/>
      <point x="299" y="685"/>
      <point x="307" y="685" type="curve" smooth="yes"/>
      <point x="359" y="685"/>
      <point x="412" y="685"/>
      <point x="463" y="691" type="curve"/>
      <point x="478" y="777"/>
      <point x="495" y="864"/>
      <point x="496" y="952" type="curve"/>
      <point x="465" y="959"/>
      <point x="432" y="960"/>
      <point x="400" y="960" type="curve" smooth="yes"/>
      <point x="371" y="960"/>
      <point x="342" y="959"/>
      <point x="314" y="954" type="curve"/>
      <point x="290" y="867"/>
      <point x="285" y="776"/>
    </contour>
  </outline>
</glyph>
<glyph name="percent" format="1">
  <advance width="1077"/>
  <unicode hex="0025"/>
  <outline>
    <contour>
      <point x="940" y="467" type="line" smooth="yes"/>
      <point x="940" y="535"/>
      <point x="928" y="733"/>
      <point x="832" y="733" type="curve" smooth="yes"/>
      <point x="748" y="733"/>
      <point x="741" y="428"/>
      <point x="741" y="366" type="curve" smooth="yes"/>
      <point x="741" y="329"/>
      <point x="776" y="116"/>
      <point x="816" y="116" type="curve" smooth="yes"/>
      <point x="935" y="116"/>
      <point x="940" y="303"/>
      <point x="940" y="386" type="curve" smooth="yes"/>
    </contour>
    <contour>
      <point x="222" y="1449" type="curve" smooth="yes"/>
      <point x="184" y="1449"/>
      <point x="145" y="1210"/>
      <point x="145" y="1165" type="curve" smooth="yes"/>
      <point x="145" y="1102"/>
      <point x="152" y="800"/>
      <point x="238" y="800" type="curve" smooth="yes"/>
      <point x="346" y="800"/>
      <point x="350" y="1017"/>
      <point x="350" y="1092" type="curve" smooth="yes"/>
      <point x="350" y="1179"/>
      <point x="350" y="1449"/>
    </contour>
    <contour>
      <point x="657" y="1438" type="curve"/>
      <point x="658" y="1437" type="line"/>
      <point x="659" y="1467"/>
      <point x="674" y="1536"/>
      <point x="715" y="1536" type="curve" smooth="yes"/>
      <point x="743" y="1536"/>
      <point x="769" y="1517"/>
      <point x="769" y="1487" type="curve" smooth="yes"/>
      <point x="769" y="1294"/>
      <point x="552" y="558"/>
      <point x="497" y="308" type="curve" smooth="yes"/>
      <point x="482" y="241"/>
      <point x="454" y="-4"/>
      <point x="367" y="-8" type="curve"/>
      <point x="346" y="4"/>
      <point x="328" y="27"/>
      <point x="328" y="52" type="curve" smooth="yes"/>
      <point x="328" y="272"/>
      <point x="584" y="1167"/>
    </contour>
    <contour>
      <point x="811" y="2" type="curve" smooth="yes"/>
      <point x="675" y="2"/>
      <point x="643" y="270"/>
      <point x="643" y="370" type="curve" smooth="yes"/>
      <point x="643" y="504"/>
      <point x="644" y="838"/>
      <point x="838" y="838" type="curve" smooth="yes"/>
      <point x="1017" y="838"/>
      <point x="1040" y="612"/>
      <point x="1040" y="478" type="curve" smooth="yes"/>
      <point x="1040" y="378" type="line" smooth="yes"/>
      <point x="1040" y="229"/>
      <point x="1003" y="2"/>
    </contour>
    <contour>
      <point x="444" y="1140" type="line"/>
      <point x="443" y="1141" type="line"/>
      <point x="391" y="999"/>
      <point x="506" y="700"/>
      <point x="241" y="700" type="curve" smooth="yes"/>
      <point x="47" y="700"/>
      <point x="46" y="1025"/>
      <point x="46" y="1163" type="curve" smooth="yes"/>
      <point x="46" y="1255"/>
      <point x="79" y="1553"/>
      <point x="215" y="1553" type="curve" smooth="yes"/>
      <point x="420" y="1553"/>
      <point x="444" y="1300"/>
      <point x="444" y="1147" type="curve" smooth="yes"/>
    </contour>
  </outline>
</glyph>
<glyph name="ampersand" format="1">
  <advance width="990"></advance>
  <unicode hex="0026"></unicode>
  <outline>
    <contour>
      <point x="363" y="1291" type="line" smooth="yes"></point>
      <point x="363" y="1199"></point>
      <point x="366" y="1108"></point>
      <point x="366" y="1016" type="curve" smooth="yes"></point>
      <point x="366" y="993" type="line"></point>
      <point x="424" y="1065"></point>
      <point x="516" y="1213"></point>
      <point x="516" y="1291" type="curve" smooth="yes"></point>
      <point x="516" y="1334"></point>
      <point x="466" y="1450"></point>
      <point x="415" y="1450" type="curve" smooth="yes"></point>
      <point x="397" y="1450"></point>
      <point x="379" y="1436"></point>
      <point x="363" y="1400" type="curve"></point>
    </contour>
    <contour>
      <point x="857" y="722" type="curve"></point>
      <point x="885" y="716"></point>
      <point x="915" y="701"></point>
      <point x="915" y="668" type="curve" smooth="yes"></point>
      <point x="915" y="621"></point>
      <point x="846" y="612"></point>
      <point x="808" y="612" type="curve" smooth="yes"></point>
      <point x="806" y="612"></point>
      <point x="804" y="613"></point>
      <point x="802" y="613" type="curve" smooth="yes"></point>
      <point x="751" y="613" type="line"></point>
      <point x="751" y="516"></point>
      <point x="750" y="285"></point>
      <point x="667" y="175" type="curve"></point>
      <point x="701" y="140"></point>
      <point x="747" y="112"></point>
      <point x="797" y="112" type="curve" smooth="yes"></point>
      <point x="825" y="112"></point>
      <point x="852" y="118"></point>
      <point x="880" y="118" type="curve"></point>
      <point x="918" y="87" type="line"></point>
      <point x="918" y="26"></point>
      <point x="863" y="19"></point>
      <point x="814" y="19" type="curve" smooth="yes"></point>
      <point x="740" y="19"></point>
      <point x="675" y="53"></point>
      <point x="616" y="96" type="curve"></point>
      <point x="544" y="47"></point>
      <point x="473" y="18"></point>
      <point x="385" y="18" type="curve" smooth="yes"></point>
      <point x="219" y="18"></point>
      <point x="102" y="202"></point>
      <point x="102" y="354" type="curve" smooth="yes"></point>
      <point x="102" y="600"></point>
      <point x="175" y="733"></point>
      <point x="284" y="945" type="curve"></point>
      <point x="283" y="1039"></point>
      <point x="270" y="1132"></point>
      <point x="270" y="1226" type="curve" smooth="yes"></point>
      <point x="270" y="1396" type="line" smooth="yes"></point>
      <point x="270" y="1502"></point>
      <point x="329" y="1544"></point>
      <point x="398" y="1544" type="curve" smooth="yes"></point>
      <point x="494" y="1544"></point>
      <point x="608" y="1463"></point>
      <point x="608" y="1360" type="curve" smooth="yes"></point>
      <point x="608" y="1188"></point>
      <point x="546" y="1065"></point>
      <point x="442" y="944" type="curve"></point>
      <point x="427" y="917"></point>
      <point x="390" y="876"></point>
      <point x="390" y="846" type="curve" smooth="yes"></point>
      <point x="390" y="734"></point>
      <point x="519" y="318"></point>
      <point x="595" y="238" type="curve"></point>
      <point x="645" y="352"></point>
      <point x="659" y="477"></point>
      <point x="659" y="600" type="curve" smooth="yes"></point>
      <point x="659" y="609" type="line"></point>
      <point x="636" y="609"></point>
      <point x="634" y="624"></point>
      <point x="625" y="644" type="curve"></point>
      <point x="625" y="696" type="line"></point>
      <point x="681" y="696"></point>
      <point x="806" y="705"></point>
    </contour>
    <contour>
      <point x="305" y="789" type="curve"></point>
      <point x="230" y="671"></point>
      <point x="197" y="528"></point>
      <point x="197" y="389" type="curve" smooth="yes"></point>
      <point x="197" y="262"></point>
      <point x="251" y="103"></point>
      <point x="403" y="103" type="curve" smooth="yes"></point>
      <point x="444" y="103"></point>
      <point x="524" y="128"></point>
      <point x="553" y="158" type="curve"></point>
      <point x="422" y="347"></point>
      <point x="345" y="546"></point>
    </contour>
  </outline>
</glyph>
<glyph name="quotesingle" format="1">
  <advance width="558"></advance>
  <unicode hex="0027"></unicode>
  <outline>
    <contour>
      <point x="251" y="1193" type="line" smooth="yes"></point>
      <point x="238" y="1193"></point>
      <point x="222" y="1435"></point>
      <point x="222" y="1531" type="curve" smooth="yes"></point>
      <point x="222" y="1559"></point>
      <point x="255" y="1578"></point>
      <point x="283" y="1578" type="curve" smooth="yes"></point>
      <point x="313" y="1578"></point>
      <point x="328" y="1556"></point>
      <point x="337" y="1531" type="curve"></point>
      <point x="332" y="1525" type="line"></point>
      <point x="332" y="1521"></point>
      <point x="333" y="1514"></point>
      <point x="333" y="1511" type="curve" smooth="yes"></point>
      <point x="333" y="1407"></point>
      <point x="298" y="1193"></point>
      <point x="258" y="1193" type="curve" smooth="yes"></point>
    </contour>
  </outline>
</glyph>
<glyph name="parenleft" format="1">
  <advance width="684"></advance>
  <unicode hex="0028"></unicode>
  <outline>
    <contour>
      <point x="526" y="-319" type="curve"></point>
      <point x="524" y="-318" type="line"></point>
      <point x="515" y="-340"></point>
      <point x="494" y="-361"></point>
      <point x="468" y="-361" type="curve" smooth="yes"></point>
      <point x="276" y="-361"></point>
      <point x="182" y="701"></point>
      <point x="182" y="881" type="curve" smooth="yes"></point>
      <point x="182" y="1001"></point>
      <point x="261" y="1651"></point>
      <point x="403" y="1651" type="curve" smooth="yes"></point>
      <point x="412" y="1651" type="line"></point>
      <point x="448" y="1621" type="line"></point>
      <point x="447" y="1545"></point>
      <point x="403" y="1484"></point>
      <point x="375" y="1416" type="curve" smooth="yes"></point>
      <point x="311" y="1259"></point>
      <point x="284" y="1048"></point>
      <point x="284" y="879" type="curve" smooth="yes"></point>
      <point x="284" y="583"></point>
      <point x="315" y="139"></point>
      <point x="438" y="-130" type="curve" smooth="yes"></point>
      <point x="467" y="-193"></point>
      <point x="509" y="-251"></point>
    </contour>
  </outline>
</glyph>
<glyph name="parenright" format="1">
  <advance width="810"></advance>
  <unicode hex="0029"></unicode>
  <outline>
    <contour>
      <point x="617" y="817" type="curve"></point>
      <point x="617" y="815" type="line"></point>
      <point x="616" y="651"></point>
      <point x="478" y="-303"></point>
      <point x="308" y="-303" type="curve" smooth="yes"></point>
      <point x="281" y="-303"></point>
      <point x="254" y="-284"></point>
      <point x="254" y="-255" type="curve" smooth="yes"></point>
      <point x="254" y="-217"></point>
      <point x="321" y="-112"></point>
      <point x="340" y="-71" type="curve" smooth="yes"></point>
      <point x="443" y="158"></point>
      <point x="514" y="564"></point>
      <point x="514" y="816" type="curve" smooth="yes"></point>
      <point x="514" y="993"></point>
      <point x="490" y="1253"></point>
      <point x="423" y="1416" type="curve" smooth="yes"></point>
      <point x="397" y="1480"></point>
      <point x="349" y="1538"></point>
      <point x="349" y="1610" type="curve" smooth="yes"></point>
      <point x="349" y="1621" type="line"></point>
      <point x="386" y="1650" type="line"></point>
      <point x="552" y="1650"></point>
      <point x="615" y="954"></point>
    </contour>
  </outline>
</glyph>
<glyph name="asterisk" format="1">
  <advance width="954"></advance>
  <unicode hex="002A"></unicode>
  <outline>
    <contour>
      <point x="516" y="1194" type="curve"></point>
      <point x="547" y="1190"></point>
      <point x="577" y="1189"></point>
      <point x="608" y="1189" type="curve" smooth="yes"></point>
      <point x="635" y="1189"></point>
      <point x="692" y="1199"></point>
      <point x="743" y="1199" type="curve" smooth="yes"></point>
      <point x="798" y="1199"></point>
      <point x="847" y="1187"></point>
      <point x="847" y="1137" type="curve" smooth="yes"></point>
      <point x="847" y="1096"></point>
      <point x="811" y="1085"></point>
      <point x="776" y="1085" type="curve" smooth="yes"></point>
      <point x="687" y="1085"></point>
      <point x="598" y="1094"></point>
      <point x="509" y="1094" type="curve"></point>
      <point x="539" y="1015"></point>
      <point x="661" y="819"></point>
      <point x="661" y="752" type="curve" smooth="yes"></point>
      <point x="661" y="723"></point>
      <point x="638" y="700"></point>
      <point x="609" y="700" type="curve" smooth="yes"></point>
      <point x="552" y="700"></point>
      <point x="533" y="776"></point>
      <point x="531" y="821" type="curve"></point>
      <point x="444" y="1011" type="line"></point>
      <point x="404" y="910"></point>
      <point x="367" y="782"></point>
      <point x="310" y="690" type="curve"></point>
      <point x="261" y="690" type="line"></point>
      <point x="217" y="736" type="line"></point>
      <point x="216" y="745" type="line"></point>
      <point x="221" y="817"></point>
      <point x="343" y="1012"></point>
      <point x="372" y="1096" type="curve"></point>
      <point x="147" y="1096" type="line" smooth="yes"></point>
      <point x="102" y="1096"></point>
      <point x="69" y="1092"></point>
      <point x="69" y="1150" type="curve" smooth="yes"></point>
      <point x="69" y="1175"></point>
      <point x="89" y="1196"></point>
      <point x="115" y="1196" type="curve" smooth="yes"></point>
      <point x="358" y="1196" type="line"></point>
      <point x="331" y="1250"></point>
      <point x="222" y="1455"></point>
      <point x="222" y="1501" type="curve" smooth="yes"></point>
      <point x="222" y="1531"></point>
      <point x="251" y="1547"></point>
      <point x="278" y="1547" type="curve" smooth="yes"></point>
      <point x="334" y="1547"></point>
      <point x="404" y="1307"></point>
      <point x="429" y="1258" type="curve"></point>
      <point x="449" y="1317"></point>
      <point x="510" y="1567"></point>
      <point x="582" y="1567" type="curve" smooth="yes"></point>
      <point x="611" y="1567"></point>
      <point x="639" y="1542"></point>
      <point x="639" y="1512" type="curve" smooth="yes"></point>
      <point x="639" y="1444"></point>
      <point x="546" y="1268"></point>
    </contour>
  </outline>
</glyph>
<glyph name="hyphen" format="1">
  <advance width="731"/>
  <unicode hex="002d"/>
  <outline>
    <contour>
      <point x="587" y="739" type="curve" smooth="yes"/>
      <point x="587" y="775"/>
      <point x="552" y="798"/>
      <point x="519" y="798" type="curve" smooth="yes"/>
      <point x="462" y="798"/>
      <point x="145" y="787"/>
      <point x="145" y="715" type="curve" smooth="yes"/>
      <point x="145" y="680"/>
      <point x="179" y="656"/>
      <point x="212" y="656" type="curve" smooth="yes"/>
      <point x="270" y="656"/>
      <point x="587" y="666"/>
    </contour>
  </outline>
</glyph>
<glyph name="period" format="1">
  <advance width="612"></advance>
  <unicode hex="002E"></unicode>
  <outline>
    <contour>
      <point x="222" y="41" type="curve" smooth="yes"></point>
      <point x="222" y="82"></point>
      <point x="258" y="120"></point>
      <point x="299" y="120" type="curve" smooth="yes"></point>
      <point x="338" y="120"></point>
      <point x="372" y="81"></point>
      <point x="372" y="43" type="curve" smooth="yes"></point>
      <point x="372" y="-4"></point>
      <point x="336" y="-32"></point>
      <point x="291" y="-32" type="curve" smooth="yes"></point>
      <point x="253" y="-32"></point>
      <point x="222" y="4"></point>
    </contour>
  </outline>
</glyph>
<glyph name="zero" format="1">
  <advance width="828"></advance>
  <unicode hex="0030"></unicode>
  <outline>
    <contour>
      <point x="549" y="568" type="curve" smooth="yes"></point>
      <point x="549" y="848"></point>
      <point x="527" y="1490"></point>
      <point x="327" y="1518" type="curve"></point>
      <point x="282" y="1481"></point>
      <point x="274" y="1451"></point>
      <point x="274" y="1395" type="curve" smooth="yes"></point>
      <point x="274" y="1260"></point>
      <point x="282" y="1125"></point>
      <point x="282" y="990" type="curve" smooth="yes"></point>
      <point x="282" y="923"></point>
      <point x="303" y="857"></point>
      <point x="303" y="790" type="curve" smooth="yes"></point>
      <point x="303" y="685"></point>
      <point x="311" y="100"></point>
      <point x="443" y="100" type="curve" smooth="yes"></point>
      <point x="530" y="100"></point>
      <point x="549" y="497"></point>
    </contour>
    <contour>
      <point x="176" y="1222" type="curve" smooth="yes"></point>
      <point x="176" y="1408"></point>
      <point x="209" y="1563"></point>
      <point x="350" y="1563" type="curve" smooth="yes"></point>
      <point x="640" y="1563"></point>
      <point x="644" y="798"></point>
      <point x="644" y="521" type="curve" smooth="yes"></point>
      <point x="644" y="373"></point>
      <point x="636" y="7"></point>
      <point x="424" y="7" type="curve" smooth="yes"></point>
      <point x="166" y="7"></point>
      <point x="176" y="976"></point>
    </contour>
  </outline>
</glyph>
<glyph name="one" format="1">
  <advance width="452"/>
  <unicode hex="0031"/>
  <outline>
    <contour>
      <point x="152" y="1308" type="curve" smooth="yes"/>
      <point x="152" y="1329"/>
      <point x="155" y="1356"/>
      <point x="155" y="1383" type="curve" smooth="yes"/>
      <point x="155" y="1432"/>
      <point x="144" y="1479"/>
      <point x="84" y="1479" type="curve" smooth="yes"/>
      <point x="71" y="1479"/>
      <point x="54" y="1477"/>
      <point x="37" y="1477" type="curve" smooth="yes"/>
      <point x="7" y="1477"/>
      <point x="-21" y="1483"/>
      <point x="-21" y="1521" type="curve" smooth="yes"/>
      <point x="-21" y="1574"/>
      <point x="101" y="1575"/>
      <point x="144" y="1575" type="curve" smooth="yes"/>
      <point x="177" y="1575"/>
      <point x="231" y="1574"/>
      <point x="249" y="1541" type="curve"/>
      <point x="243" y="1513"/>
      <point x="237" y="1484"/>
      <point x="237" y="1455" type="curve" smooth="yes"/>
      <point x="237" y="1329"/>
      <point x="268" y="1205"/>
      <point x="268" y="1079" type="curve" smooth="yes"/>
      <point x="268" y="756"/>
      <point x="312" y="433"/>
      <point x="312" y="109" type="curve" smooth="yes"/>
      <point x="312" y="96" type="line"/>
      <point x="337" y="98"/>
      <point x="362" y="102"/>
      <point x="387" y="102" type="curve"/>
      <point x="387" y="103" type="line"/>
      <point x="423" y="103"/>
      <point x="474" y="99"/>
      <point x="474" y="52" type="curve" smooth="yes"/>
      <point x="474" y="-4"/>
      <point x="312" y="-8"/>
      <point x="241" y="-8" type="curve" smooth="yes"/>
      <point x="211" y="-8"/>
      <point x="203" y="-9"/>
      <point x="180" y="-9" type="curve" smooth="yes"/>
      <point x="139" y="-9"/>
      <point x="116" y="-3"/>
      <point x="116" y="47" type="curve" smooth="yes"/>
      <point x="116" y="75"/>
      <point x="121" y="86"/>
      <point x="169" y="86" type="curve" smooth="yes"/>
      <point x="193" y="86"/>
      <point x="214" y="93"/>
      <point x="214" y="120" type="curve" smooth="yes"/>
      <point x="214" y="519"/>
      <point x="152" y="923"/>
    </contour>
  </outline>
</glyph>
<glyph name="two" format="1">
  <advance width="774"></advance>
  <unicode hex="0032"></unicode>
  <outline>
    <contour>
      <point x="279" y="86" type="curve"></point>
      <point x="356" y="99"></point>
      <point x="443" y="107"></point>
      <point x="521" y="107" type="curve"></point>
      <point x="546" y="89"></point>
      <point x="564" y="70"></point>
      <point x="564" y="49" type="curve" smooth="yes"></point>
      <point x="564" y="35"></point>
      <point x="556" y="20"></point>
      <point x="537" y="4" type="curve"></point>
      <point x="433" y="4"></point>
      <point x="329" y="-15"></point>
      <point x="225" y="-15" type="curve" smooth="yes"></point>
      <point x="189" y="-15"></point>
      <point x="150" y="7"></point>
      <point x="150" y="47" type="curve" smooth="yes"></point>
      <point x="150" y="55" type="line"></point>
      <point x="208" y="125"></point>
      <point x="226" y="218"></point>
      <point x="263" y="299" type="curve" smooth="yes"></point>
      <point x="405" y="614"></point>
      <point x="494" y="886"></point>
      <point x="494" y="1236" type="curve" smooth="yes"></point>
      <point x="494" y="1305"></point>
      <point x="490" y="1492"></point>
      <point x="396" y="1500" type="curve"></point>
      <point x="340" y="1470"></point>
      <point x="366" y="1327"></point>
      <point x="290" y="1327" type="curve" smooth="yes"></point>
      <point x="252" y="1327"></point>
      <point x="240" y="1357"></point>
      <point x="240" y="1390" type="curve" smooth="yes"></point>
      <point x="240" y="1465"></point>
      <point x="280" y="1586"></point>
      <point x="372" y="1586" type="curve"></point>
      <point x="372" y="1587" type="line"></point>
      <point x="591" y="1587"></point>
      <point x="592" y="1357"></point>
      <point x="592" y="1201" type="curve" smooth="yes"></point>
      <point x="592" y="772"></point>
      <point x="386" y="409"></point>
    </contour>
  </outline>
</glyph>
<glyph name="four" format="1">
  <advance width="720"></advance>
  <unicode hex="0034"></unicode>
  <outline>
    <contour>
      <point x="381" y="1160" type="curve" smooth="yes"></point>
      <point x="381" y="1191"></point>
      <point x="415" y="1206"></point>
      <point x="434" y="1206" type="curve"></point>
      <point x="466" y="1170" type="line"></point>
      <point x="466" y="1072" type="line" smooth="yes"></point>
      <point x="466" y="913"></point>
      <point x="466" y="753"></point>
      <point x="462" y="596" type="curve"></point>
      <point x="477" y="597"></point>
      <point x="499" y="601"></point>
      <point x="521" y="601" type="curve" smooth="yes"></point>
      <point x="552" y="601"></point>
      <point x="582" y="593"></point>
      <point x="582" y="557" type="curve" smooth="yes"></point>
      <point x="582" y="513"></point>
      <point x="536" y="507"></point>
      <point x="500" y="507" type="curve" smooth="yes"></point>
      <point x="485" y="507"></point>
      <point x="467" y="505"></point>
      <point x="467" y="489" type="curve" smooth="yes"></point>
      <point x="467" y="436"></point>
      <point x="473" y="190"></point>
      <point x="488" y="155" type="curve"></point>
      <point x="486" y="143"></point>
      <point x="484" y="130"></point>
      <point x="484" y="117" type="curve" smooth="yes"></point>
      <point x="484" y="103"></point>
      <point x="485" y="89"></point>
      <point x="493" y="76" type="curve"></point>
      <point x="493" y="39" type="line" smooth="yes"></point>
      <point x="493" y="9"></point>
      <point x="483" y="-38"></point>
      <point x="445" y="-38" type="curve" smooth="yes"></point>
      <point x="399" y="-38"></point>
      <point x="380" y="23"></point>
      <point x="380" y="59" type="curve" smooth="yes"></point>
      <point x="380" y="66" type="line"></point>
      <point x="387" y="90"></point>
      <point x="391" y="115"></point>
      <point x="391" y="140" type="curve" smooth="yes"></point>
      <point x="391" y="207"></point>
      <point x="376" y="272"></point>
      <point x="376" y="339" type="curve" smooth="yes"></point>
      <point x="376" y="369"></point>
      <point x="378" y="398"></point>
      <point x="378" y="428" type="curve" smooth="yes"></point>
      <point x="378" y="449"></point>
      <point x="377" y="470"></point>
      <point x="374" y="491" type="curve"></point>
      <point x="337" y="489"></point>
      <point x="299" y="480"></point>
      <point x="262" y="480" type="curve"></point>
      <point x="262" y="479" type="line"></point>
      <point x="231" y="479"></point>
      <point x="206" y="493"></point>
      <point x="182" y="512" type="curve"></point>
      <point x="182" y="539"></point>
      <point x="184" y="565"></point>
      <point x="191" y="591" type="curve"></point>
      <point x="184" y="628"></point>
      <point x="182" y="666"></point>
      <point x="182" y="706" type="curve" smooth="yes"></point>
      <point x="182" y="844"></point>
      <point x="213" y="991"></point>
      <point x="213" y="1124" type="curve" smooth="yes"></point>
      <point x="213" y="1503" type="line" smooth="yes"></point>
      <point x="213" y="1525"></point>
      <point x="215" y="1543"></point>
      <point x="252" y="1543" type="curve" smooth="yes"></point>
      <point x="281" y="1543"></point>
      <point x="313" y="1524"></point>
      <point x="313" y="1492" type="curve" smooth="yes"></point>
      <point x="313" y="1440"></point>
      <point x="304" y="1386"></point>
      <point x="304" y="1333" type="curve" smooth="yes"></point>
      <point x="304" y="1321"></point>
      <point x="303" y="1308"></point>
      <point x="303" y="1296" type="curve" smooth="yes"></point>
      <point x="303" y="1284"></point>
      <point x="304" y="1271"></point>
      <point x="307" y="1259" type="curve"></point>
      <point x="307" y="1252" type="line"></point>
      <point x="311" y="1216"></point>
      <point x="313" y="1179"></point>
      <point x="313" y="1143" type="curve" smooth="yes"></point>
      <point x="313" y="969"></point>
      <point x="284" y="796"></point>
      <point x="284" y="622" type="curve" smooth="yes"></point>
      <point x="284" y="607"></point>
      <point x="285" y="591"></point>
      <point x="287" y="576" type="curve"></point>
      <point x="312" y="577"></point>
      <point x="337" y="581"></point>
      <point x="362" y="587" type="curve"></point>
      <point x="363" y="780"></point>
      <point x="381" y="983"></point>
    </contour>
  </outline>
</glyph>
<glyph name="five" format="1">
  <advance width="792"></advance>
  <unicode hex="0035"></unicode>
  <outline>
    <contour>
      <point x="197" y="1008" type="curve" smooth="yes"></point>
      <point x="197" y="1043"></point>
      <point x="208" y="1077"></point>
      <point x="208" y="1112" type="curve" smooth="yes"></point>
      <point x="208" y="1256"></point>
      <point x="180" y="1398"></point>
      <point x="158" y="1540" type="curve"></point>
      <point x="193" y="1576" type="line"></point>
      <point x="360" y="1576" type="line" smooth="yes"></point>
      <point x="397" y="1576"></point>
      <point x="445" y="1572"></point>
      <point x="445" y="1524" type="curve" smooth="yes"></point>
      <point x="445" y="1513" type="line"></point>
      <point x="407" y="1482" type="line"></point>
      <point x="356" y="1482" type="line"></point>
      <point x="356" y="1488" type="line"></point>
      <point x="269" y="1488" type="line"></point>
      <point x="275" y="1325"></point>
      <point x="293" y="1164"></point>
      <point x="309" y="1002" type="curve"></point>
      <point x="362" y="996"></point>
      <point x="430" y="996"></point>
      <point x="475" y="965" type="curve" smooth="yes"></point>
      <point x="577" y="895"></point>
      <point x="603" y="553"></point>
      <point x="603" y="434" type="curve" smooth="yes"></point>
      <point x="603" y="234"></point>
      <point x="603" y="95"></point>
      <point x="430" y="-36" type="curve"></point>
      <point x="420" y="-36"></point>
      <point x="408" y="-37"></point>
      <point x="395" y="-37" type="curve" smooth="yes"></point>
      <point x="346" y="-37"></point>
      <point x="283" y="-31"></point>
      <point x="283" y="21" type="curve" smooth="yes"></point>
      <point x="283" y="54"></point>
      <point x="318" y="67"></point>
      <point x="346" y="67" type="curve" smooth="yes"></point>
      <point x="365" y="67"></point>
      <point x="384" y="61"></point>
      <point x="399" y="50" type="curve"></point>
      <point x="473" y="75"></point>
      <point x="505" y="259"></point>
      <point x="505" y="328" type="curve" smooth="yes"></point>
      <point x="505" y="585"></point>
      <point x="501" y="891"></point>
      <point x="272" y="891" type="curve" smooth="yes"></point>
      <point x="204" y="891"></point>
      <point x="197" y="955"></point>
    </contour>
  </outline>
</glyph>
<glyph name="less" format="1">
  <advance width="774"></advance>
  <unicode hex="003C"></unicode>
  <outline>
    <contour>
      <point x="158" y="698" type="curve"></point>
      <point x="160" y="756"></point>
      <point x="417" y="1447"></point>
      <point x="481" y="1447" type="curve" smooth="yes"></point>
      <point x="483" y="1447"></point>
      <point x="485" y="1446"></point>
      <point x="488" y="1446" type="curve"></point>
      <point x="533" y="1411" type="line"></point>
      <point x="506" y="1193"></point>
      <point x="275" y="869"></point>
      <point x="275" y="702" type="curve" smooth="yes"></point>
      <point x="275" y="679"></point>
      <point x="549" y="115"></point>
      <point x="586" y="49" type="curve"></point>
      <point x="612" y="49" type="line"></point>
      <point x="610" y="19"></point>
      <point x="595" y="-22"></point>
      <point x="558" y="-22" type="curve" smooth="yes"></point>
      <point x="406" y="-22"></point>
      <point x="216" y="577"></point>
    </contour>
  </outline>
</glyph>
<glyph name="equal" format="1">
  <advance width="882"></advance>
  <unicode hex="003D"></unicode>
  <outline>
    <contour>
      <point x="571" y="872" type="line" smooth="yes"></point>
      <point x="640" y="872"></point>
      <point x="730" y="866"></point>
      <point x="730" y="818" type="curve" smooth="yes"></point>
      <point x="730" y="774"></point>
      <point x="616" y="764"></point>
      <point x="514" y="764" type="curve" smooth="yes"></point>
      <point x="435" y="764"></point>
      <point x="362" y="770"></point>
      <point x="359" y="770" type="curve" smooth="yes"></point>
      <point x="341" y="770"></point>
      <point x="311" y="767"></point>
      <point x="281" y="767" type="curve" smooth="yes"></point>
      <point x="222" y="767"></point>
      <point x="158" y="776"></point>
      <point x="158" y="826" type="curve" smooth="yes"></point>
      <point x="158" y="854"></point>
      <point x="176" y="872"></point>
      <point x="204" y="872" type="curve" smooth="yes"></point>
    </contour>
    <contour>
      <point x="511" y="680" type="line" smooth="yes"></point>
      <point x="609" y="680"></point>
      <point x="720" y="674"></point>
      <point x="720" y="626" type="curve" smooth="yes"></point>
      <point x="720" y="597"></point>
      <point x="700" y="579"></point>
      <point x="672" y="579" type="curve" smooth="yes"></point>
      <point x="528" y="579"></point>
      <point x="384" y="589"></point>
      <point x="240" y="589" type="curve" smooth="yes"></point>
      <point x="209" y="589"></point>
      <point x="158" y="592"></point>
      <point x="158" y="634" type="curve" smooth="yes"></point>
      <point x="158" y="662"></point>
      <point x="176" y="680"></point>
      <point x="204" y="680" type="curve" smooth="yes"></point>
    </contour>
  </outline>
</glyph>
<glyph name="greater" format="1">
  <advance width="523"/>
  <unicode hex="003E"/>
  <outline>
    <contour>
      <point x="369" y="702" type="curve" smooth="yes"/>
      <point x="369" y="908"/>
      <point x="114" y="1202"/>
      <point x="112" y="1411" type="curve"/>
      <point x="167" y="1446" type="line"/>
      <point x="167" y="1444" type="line"/>
      <point x="254" y="1404"/>
      <point x="484" y="788"/>
      <point x="487" y="698" type="curve"/>
      <point x="126" y="-19" type="line"/>
      <point x="113" y="-19"/>
      <point x="101" y="-23"/>
      <point x="88" y="-23" type="curve" smooth="yes"/>
      <point x="67" y="-23"/>
      <point x="45" y="-6"/>
      <point x="45" y="24" type="curve" smooth="yes"/>
      <point x="45" y="116"/>
      <point x="369" y="654"/>
    </contour>
  </outline>
</glyph>
<glyph name="question" format="1">
  <advance width="702"></advance>
  <unicode hex="003F"></unicode>
  <outline>
    <contour>
      <point x="262" y="68" type="curve" smooth="yes"></point>
      <point x="262" y="107"></point>
      <point x="302" y="148"></point>
      <point x="342" y="148" type="curve" smooth="yes"></point>
      <point x="379" y="148"></point>
      <point x="417" y="102"></point>
      <point x="417" y="70" type="curve" smooth="yes"></point>
      <point x="417" y="15"></point>
      <point x="382" y="-8"></point>
      <point x="334" y="-8" type="curve" smooth="yes"></point>
      <point x="294" y="-8"></point>
      <point x="262" y="31"></point>
    </contour>
    <contour>
      <point x="194" y="1359" type="curve" smooth="yes"></point>
      <point x="194" y="1446"></point>
      <point x="224" y="1547"></point>
      <point x="334" y="1547" type="curve" smooth="yes"></point>
      <point x="494" y="1547"></point>
      <point x="509" y="1388"></point>
      <point x="509" y="1260" type="curve" smooth="yes"></point>
      <point x="509" y="945"></point>
      <point x="384" y="823"></point>
      <point x="384" y="366" type="curve" smooth="yes"></point>
      <point x="384" y="332"></point>
      <point x="384" y="267"></point>
      <point x="385" y="229" type="curve"></point>
      <point x="324" y="229"></point>
      <point x="353" y="223"></point>
      <point x="334" y="223" type="curve" smooth="yes"></point>
      <point x="313" y="223"></point>
      <point x="294" y="232"></point>
      <point x="284" y="269" type="curve"></point>
      <point x="284" y="632"></point>
      <point x="399" y="949"></point>
      <point x="399" y="1258" type="curve" smooth="yes"></point>
      <point x="399" y="1297"></point>
      <point x="397" y="1447"></point>
      <point x="338" y="1447" type="curve" smooth="yes"></point>
      <point x="305" y="1447"></point>
      <point x="299" y="1397"></point>
      <point x="299" y="1356" type="curve" smooth="yes"></point>
      <point x="299" y="1341"></point>
      <point x="305" y="1299"></point>
      <point x="313" y="1245" type="curve" smooth="yes"></point>
      <point x="313" y="1241"></point>
      <point x="276" y="1203"></point>
      <point x="252" y="1203" type="curve" smooth="yes"></point>
      <point x="190" y="1203"></point>
      <point x="194" y="1308"></point>
    </contour>
  </outline>
</glyph>
<glyph name="A" format="1">
  <advance width="656"/>
  <unicode hex="0041"/>
  <outline>
    <contour>
      <point x="472" y="1525" type="curve" smooth="no"/>
      <point x="454" y="1539"/>
      <point x="428" y="1543"/>
      <point x="406" y="1543" type="curve" smooth="yes"/>
      <point x="253" y="1543"/>
      <point x="105" y="167"/>
      <point x="34" y="64" type="curve" smooth="no"/>
      <point x="43" y="26"/>
      <point x="92" y="23"/>
      <point x="124" y="23" type="curve" smooth="no"/>
      <point x="182" y="117"/>
      <point x="174" y="286"/>
      <point x="225" y="373" type="curve" smooth="no"/>
      <point x="281" y="369"/>
      <point x="420" y="351"/>
      <point x="464" y="321" type="curve" smooth="no"/>
      <point x="464" y="54" type="line" smooth="yes"/>
      <point x="464" y="13"/>
      <point x="487" y="1"/>
      <point x="527" y="1" type="curve" smooth="yes"/>
      <point x="574" y="1"/>
      <point x="595" y="24"/>
      <point x="595" y="70" type="curve" smooth="yes"/>
      <point x="595" y="284"/>
      <point x="552" y="521"/>
      <point x="552" y="710" type="curve" smooth="yes"/>
      <point x="552" y="897"/>
      <point x="472" y="1370"/>
    </contour>
    <contour>
      <point x="394" y="1236" type="curve" smooth="yes"/>
      <point x="394" y="1110"/>
      <point x="452" y="576"/>
      <point x="462" y="447" type="curve" smooth="no"/>
      <point x="450" y="444"/>
      <point x="433" y="441"/>
      <point x="420" y="441" type="curve" smooth="yes"/>
      <point x="359" y="441"/>
      <point x="297" y="448"/>
      <point x="238" y="464" type="curve" smooth="no"/>
      <point x="242" y="549"/>
      <point x="347" y="1204"/>
      <point x="395" y="1254" type="curve" smooth="no"/>
      <point x="394" y="1249"/>
      <point x="394" y="1243"/>
    </contour>
  </outline>
</glyph>
<glyph name="B" format="1">
  <advance width="774"></advance>
  <unicode hex="0042"></unicode>
  <outline>
    <contour>
      <point x="322" y="1421" type="curve" smooth="yes"></point>
      <point x="293" y="1421"></point>
      <point x="293" y="1376"></point>
      <point x="293" y="1357" type="curve" smooth="yes"></point>
      <point x="293" y="1201"></point>
      <point x="300" y="1044"></point>
      <point x="301" y="888" type="curve"></point>
      <point x="394" y="909"></point>
      <point x="438" y="1095"></point>
      <point x="469" y="1173" type="curve"></point>
      <point x="469" y="1246" type="line" smooth="yes"></point>
      <point x="469" y="1321"></point>
      <point x="404" y="1421"></point>
    </contour>
    <contour>
      <point x="529" y="369" type="curve" smooth="yes"></point>
      <point x="529" y="717"></point>
      <point x="373" y="769"></point>
      <point x="373" y="769" type="curve"></point>
      <point x="300" y="769" type="line"></point>
      <point x="308" y="543"></point>
      <point x="310" y="316"></point>
      <point x="310" y="90" type="curve"></point>
      <point x="451" y="112"></point>
      <point x="529" y="232"></point>
    </contour>
    <contour>
      <point x="635" y="374" type="curve" smooth="yes"></point>
      <point x="635" y="282"></point>
      <point x="546" y="-17"></point>
      <point x="290" y="-17" type="curve" smooth="yes"></point>
      <point x="282" y="-17" type="line" smooth="yes"></point>
      <point x="245" y="-17"></point>
      <point x="186" y="-15"></point>
      <point x="186" y="34" type="curve" smooth="yes"></point>
      <point x="186" y="202"></point>
      <point x="196" y="370"></point>
      <point x="196" y="538" type="curve" smooth="yes"></point>
      <point x="196" y="815"></point>
      <point x="182" y="1093"></point>
      <point x="182" y="1370" type="curve" smooth="yes"></point>
      <point x="182" y="1382" type="line" smooth="yes"></point>
      <point x="182" y="1440"></point>
      <point x="185" y="1537"></point>
      <point x="259" y="1537" type="curve" smooth="yes"></point>
      <point x="459" y="1537"></point>
      <point x="569" y="1392"></point>
      <point x="569" y="1201" type="curve" smooth="yes"></point>
      <point x="569" y="1075"></point>
      <point x="492" y="924"></point>
      <point x="403" y="859" type="curve"></point>
      <point x="585" y="737"></point>
      <point x="635" y="537"></point>
    </contour>
  </outline>
</glyph>
<glyph name="C" format="1">
  <advance width="649"/>
  <unicode hex="0043"/>
  <outline>
    <contour>
      <point x="557" y="166" type="curve" smooth="yes"/>
      <point x="576" y="166"/>
      <point x="598" y="154"/>
      <point x="617" y="135" type="curve"/>
      <point x="617" y="4"/>
      <point x="472" y="-33"/>
      <point x="366" y="-33" type="curve" smooth="yes"/>
      <point x="79" y="-33"/>
      <point x="51" y="425"/>
      <point x="51" y="792" type="curve" smooth="yes"/>
      <point x="51" y="882"/>
      <point x="53" y="966"/>
      <point x="53" y="1037" type="curve" smooth="yes"/>
      <point x="53" y="1100"/>
      <point x="55" y="1164"/>
      <point x="67" y="1226" type="curve"/>
      <point x="63" y="1248"/>
      <point x="61" y="1270"/>
      <point x="61" y="1290" type="curve" smooth="yes"/>
      <point x="61" y="1463"/>
      <point x="210" y="1565"/>
      <point x="387" y="1565" type="curve" smooth="yes"/>
      <point x="442" y="1565"/>
      <point x="530" y="1531"/>
      <point x="530" y="1465" type="curve" smooth="yes"/>
      <point x="530" y="1434"/>
      <point x="501" y="1419"/>
      <point x="473" y="1419" type="curve" smooth="yes"/>
      <point x="453" y="1419"/>
      <point x="411" y="1426"/>
      <point x="400" y="1444" type="curve"/>
      <point x="400" y="1443" type="line"/>
      <point x="372" y="1443" type="line"/>
      <point x="372" y="1448" type="line"/>
      <point x="175" y="1448"/>
      <point x="170" y="1294"/>
      <point x="170" y="1140" type="curve" smooth="yes"/>
      <point x="170" y="1093"/>
      <point x="176" y="1046"/>
      <point x="176" y="999" type="curve" smooth="yes"/>
      <point x="176" y="951"/>
      <point x="158" y="904"/>
      <point x="158" y="856" type="curve" smooth="yes"/>
      <point x="158" y="807" type="line" smooth="yes"/>
      <point x="158" y="549"/>
      <point x="165" y="93"/>
      <point x="393" y="93" type="curve" smooth="yes"/>
      <point x="460" y="93"/>
      <point x="504" y="166"/>
    </contour>
  </outline>
</glyph>
<glyph name="D" format="1">
  <advance width="882"></advance>
  <unicode hex="0044"></unicode>
  <outline>
    <contour>
      <point x="317" y="310" type="curve" smooth="yes"></point>
      <point x="317" y="114" type="line"></point>
      <point x="534" y="254"></point>
      <point x="594" y="615"></point>
      <point x="594" y="854" type="curve" smooth="yes"></point>
      <point x="594" y="1061"></point>
      <point x="550" y="1429"></point>
      <point x="268" y="1429" type="curve"></point>
      <point x="268" y="1427" type="line"></point>
      <point x="269" y="1054"></point>
      <point x="317" y="683"></point>
    </contour>
    <contour>
      <point x="274" y="-5" type="curve" smooth="yes"></point>
      <point x="232" y="-5"></point>
      <point x="174" y="14"></point>
      <point x="174" y="65" type="curve"></point>
      <point x="219" y="112"></point>
      <point x="219" y="244"></point>
      <point x="219" y="306" type="curve" smooth="yes"></point>
      <point x="219" y="533"></point>
      <point x="181" y="758"></point>
      <point x="181" y="982" type="curve" smooth="yes"></point>
      <point x="181" y="1055"></point>
      <point x="187" y="1131"></point>
      <point x="187" y="1206" type="curve" smooth="yes"></point>
      <point x="187" y="1308"></point>
      <point x="142" y="1400"></point>
      <point x="142" y="1481" type="curve" smooth="yes"></point>
      <point x="142" y="1548"></point>
      <point x="241" y="1552"></point>
      <point x="299" y="1552" type="curve" smooth="yes"></point>
      <point x="330" y="1552" type="line" smooth="yes"></point>
      <point x="693" y="1552"></point>
      <point x="699" y="1023"></point>
      <point x="699" y="868" type="curve" smooth="yes"></point>
      <point x="699" y="773" type="line"></point>
      <point x="688" y="754"></point>
      <point x="699" y="733"></point>
      <point x="699" y="711" type="curve" smooth="yes"></point>
      <point x="699" y="503"></point>
      <point x="525" y="-5"></point>
    </contour>
  </outline>
</glyph>
<glyph name="E" format="1">
  <advance width="738"></advance>
  <unicode hex="0045"></unicode>
  <outline>
    <contour>
      <point x="551" y="50" type="line"></point>
      <point x="520" y="-11"></point>
      <point x="435" y="-12"></point>
      <point x="376" y="-12" type="curve" smooth="yes"></point>
      <point x="312" y="-12" type="line" smooth="yes"></point>
      <point x="264" y="-12"></point>
      <point x="210" y="-10"></point>
      <point x="210" y="55" type="curve" smooth="yes"></point>
      <point x="210" y="1245" type="line" smooth="yes"></point>
      <point x="210" y="1316"></point>
      <point x="182" y="1383"></point>
      <point x="182" y="1454" type="curve" smooth="yes"></point>
      <point x="182" y="1461" type="line"></point>
      <point x="197" y="1486"></point>
      <point x="211" y="1513"></point>
      <point x="233" y="1533" type="curve"></point>
      <point x="284" y="1533"></point>
      <point x="334" y="1551"></point>
      <point x="385" y="1551" type="curve" smooth="yes"></point>
      <point x="421" y="1551"></point>
      <point x="479" y="1527"></point>
      <point x="479" y="1484" type="curve" smooth="yes"></point>
      <point x="479" y="1432"></point>
      <point x="428" y="1423"></point>
      <point x="386" y="1423" type="curve" smooth="yes"></point>
      <point x="366" y="1423"></point>
      <point x="347" y="1425"></point>
      <point x="327" y="1425" type="curve" smooth="yes"></point>
      <point x="320" y="1425"></point>
      <point x="312" y="1425"></point>
      <point x="305" y="1424" type="curve"></point>
      <point x="305" y="1311"></point>
      <point x="321" y="1199"></point>
      <point x="321" y="1086" type="curve" smooth="yes"></point>
      <point x="321" y="1008"></point>
      <point x="312" y="930"></point>
      <point x="311" y="852" type="curve"></point>
      <point x="343" y="858"></point>
      <point x="374" y="870"></point>
      <point x="407" y="870" type="curve" smooth="yes"></point>
      <point x="437" y="870"></point>
      <point x="467" y="844"></point>
      <point x="467" y="813" type="curve" smooth="yes"></point>
      <point x="467" y="782"></point>
      <point x="447" y="750"></point>
      <point x="413" y="750" type="curve" smooth="yes"></point>
      <point x="400" y="750"></point>
      <point x="381" y="752"></point>
      <point x="362" y="752" type="curve" smooth="yes"></point>
      <point x="341" y="752"></point>
      <point x="330" y="749"></point>
      <point x="320" y="737" type="curve"></point>
      <point x="320" y="105" type="line"></point>
      <point x="355" y="107"></point>
      <point x="399" y="111"></point>
      <point x="434" y="111" type="curve" smooth="yes"></point>
      <point x="470" y="111"></point>
      <point x="551" y="108"></point>
      <point x="551" y="57" type="curve" smooth="yes"></point>
    </contour>
  </outline>
</glyph>
<glyph name="G" format="1">
  <advance width="972"></advance>
  <unicode hex="0047"></unicode>
  <outline>
    <contour>
      <point x="685" y="2" type="curve"></point>
      <point x="685" y="4" type="line"></point>
      <point x="636" y="-18"></point>
      <point x="590" y="-54"></point>
      <point x="534" y="-54" type="curve" smooth="yes"></point>
      <point x="184" y="-54"></point>
      <point x="175" y="464"></point>
      <point x="175" y="711" type="curve" smooth="yes"></point>
      <point x="175" y="753"></point>
      <point x="174" y="805"></point>
      <point x="174" y="862" type="curve" smooth="yes"></point>
      <point x="174" y="1158"></point>
      <point x="200" y="1591"></point>
      <point x="525" y="1591" type="curve" smooth="yes"></point>
      <point x="563" y="1591"></point>
      <point x="610" y="1580"></point>
      <point x="610" y="1533" type="curve" smooth="yes"></point>
      <point x="610" y="1503"></point>
      <point x="584" y="1485"></point>
      <point x="556" y="1485" type="curve" smooth="yes"></point>
      <point x="536" y="1485"></point>
      <point x="517" y="1495"></point>
      <point x="497" y="1495" type="curve" smooth="yes"></point>
      <point x="289" y="1495"></point>
      <point x="284" y="927"></point>
      <point x="284" y="744" type="curve" smooth="yes"></point>
      <point x="284" y="709"></point>
      <point x="283" y="670"></point>
      <point x="283" y="617" type="curve" smooth="yes"></point>
      <point x="283" y="400"></point>
      <point x="301" y="51"></point>
      <point x="530" y="51" type="curve" smooth="yes"></point>
      <point x="596" y="51"></point>
      <point x="644" y="84"></point>
      <point x="681" y="137" type="curve"></point>
      <point x="680" y="190"></point>
      <point x="672" y="329"></point>
      <point x="648" y="371" type="curve"></point>
      <point x="626" y="369"></point>
      <point x="596" y="363"></point>
      <point x="568" y="363" type="curve" smooth="yes"></point>
      <point x="531" y="363"></point>
      <point x="498" y="374"></point>
      <point x="498" y="421" type="curve" smooth="yes"></point>
      <point x="498" y="477"></point>
      <point x="635" y="489"></point>
      <point x="675" y="489" type="curve" smooth="yes"></point>
      <point x="736" y="489"></point>
      <point x="762" y="434"></point>
      <point x="762" y="380" type="curve" smooth="yes"></point>
      <point x="762" y="257"></point>
      <point x="803" y="138"></point>
      <point x="803" y="15" type="curve" smooth="yes"></point>
      <point x="803" y="-14"></point>
      <point x="784" y="-41"></point>
      <point x="753" y="-41" type="curve" smooth="yes"></point>
      <point x="724" y="-41"></point>
      <point x="696" y="-26"></point>
    </contour>
  </outline>
</glyph>
<glyph name="H" format="1">
  <advance width="810"></advance>
  <unicode hex="0048"></unicode>
  <outline>
    <contour>
      <point x="174" y="1510" type="curve" smooth="yes"></point>
      <point x="174" y="1537"></point>
      <point x="189" y="1547"></point>
      <point x="209" y="1547" type="curve" smooth="yes"></point>
      <point x="236" y="1547"></point>
      <point x="270" y="1529"></point>
      <point x="281" y="1514" type="curve"></point>
      <point x="276" y="1462"></point>
      <point x="274" y="1411"></point>
      <point x="274" y="1360" type="curve" smooth="yes"></point>
      <point x="274" y="1220"></point>
      <point x="288" y="1079"></point>
      <point x="288" y="939" type="curve" smooth="yes"></point>
      <point x="288" y="914"></point>
      <point x="286" y="888"></point>
      <point x="286" y="862" type="curve" smooth="yes"></point>
      <point x="286" y="844"></point>
      <point x="287" y="827"></point>
      <point x="290" y="809" type="curve"></point>
      <point x="357" y="811"></point>
      <point x="422" y="822"></point>
      <point x="489" y="824" type="curve"></point>
      <point x="488" y="1048"></point>
      <point x="481" y="1272"></point>
      <point x="481" y="1496" type="curve" smooth="yes"></point>
      <point x="481" y="1550" type="line"></point>
      <point x="579" y="1550"></point>
      <point x="581" y="1469"></point>
      <point x="581" y="1393" type="curve" smooth="yes"></point>
      <point x="581" y="943"></point>
      <point x="620" y="491"></point>
      <point x="620" y="43" type="curve" smooth="yes"></point>
      <point x="620" y="10"></point>
      <point x="597" y="-31"></point>
      <point x="560" y="-31" type="curve" smooth="yes"></point>
      <point x="521" y="-31"></point>
      <point x="508" y="4"></point>
      <point x="508" y="37" type="curve" smooth="yes"></point>
      <point x="508" y="278"></point>
      <point x="503" y="519"></point>
      <point x="490" y="759" type="curve"></point>
      <point x="468" y="763"></point>
      <point x="445" y="769"></point>
      <point x="422" y="769" type="curve" smooth="yes"></point>
      <point x="381" y="769"></point>
      <point x="339" y="769"></point>
      <point x="301" y="753" type="curve"></point>
      <point x="302" y="521"></point>
      <point x="335" y="291"></point>
      <point x="335" y="59" type="curve" smooth="yes"></point>
      <point x="335" y="34"></point>
      <point x="319" y="5"></point>
      <point x="291" y="5" type="curve" smooth="yes"></point>
      <point x="176" y="5"></point>
      <point x="174" y="1319"></point>
    </contour>
  </outline>
</glyph>
<glyph name="K" format="1">
  <advance width="864"></advance>
  <unicode hex="004B"></unicode>
  <outline>
    <contour>
      <point x="174" y="1476" type="curve" smooth="yes"></point>
      <point x="174" y="1509"></point>
      <point x="197" y="1541"></point>
      <point x="232" y="1541" type="curve" smooth="yes"></point>
      <point x="306" y="1541"></point>
      <point x="308" y="1426"></point>
      <point x="308" y="1375" type="curve" smooth="yes"></point>
      <point x="308" y="1235"></point>
      <point x="302" y="1094"></point>
      <point x="299" y="954" type="curve"></point>
      <point x="338" y="1045"></point>
      <point x="536" y="1596"></point>
      <point x="606" y="1596" type="curve" smooth="yes"></point>
      <point x="636" y="1596"></point>
      <point x="664" y="1574"></point>
      <point x="664" y="1542" type="curve" smooth="yes"></point>
      <point x="664" y="1497"></point>
      <point x="453" y="1108"></point>
      <point x="427" y="991" type="curve"></point>
      <point x="427" y="955" type="line"></point>
      <point x="463" y="864"></point>
      <point x="724" y="48"></point>
      <point x="724" y="11" type="curve" smooth="yes"></point>
      <point x="724" y="-23"></point>
      <point x="691" y="-48"></point>
      <point x="659" y="-48" type="curve" smooth="yes"></point>
      <point x="643" y="-48"></point>
      <point x="627" y="-41"></point>
      <point x="611" y="-40" type="curve"></point>
      <point x="556" y="272"></point>
      <point x="493" y="590"></point>
      <point x="361" y="880" type="curve"></point>
      <point x="307" y="776"></point>
      <point x="291" y="769"></point>
      <point x="291" y="650" type="curve" smooth="yes"></point>
      <point x="291" y="523"></point>
      <point x="304" y="397"></point>
      <point x="304" y="270" type="curve" smooth="yes"></point>
      <point x="304" y="102" type="line" smooth="yes"></point>
      <point x="304" y="78"></point>
      <point x="302" y="-7"></point>
      <point x="234" y="-7" type="curve" smooth="yes"></point>
      <point x="176" y="-7"></point>
      <point x="174" y="67"></point>
      <point x="174" y="108" type="curve" smooth="yes"></point>
      <point x="174" y="292"></point>
      <point x="201" y="476"></point>
      <point x="201" y="660" type="curve" smooth="yes"></point>
      <point x="201" y="754"></point>
      <point x="204" y="905"></point>
      <point x="204" y="1049" type="curve" smooth="yes"></point>
      <point x="204" y="1238"></point>
      <point x="174" y="1347"></point>
    </contour>
  </outline>
</glyph>
<glyph name="L" format="1">
  <advance width="430"/>
  <unicode hex="004C"/>
  <outline>
    <contour>
      <point x="201" y="115" type="line"/>
      <point x="357" y="115" type="line"/>
      <point x="379" y="100"/>
      <point x="401" y="83"/>
      <point x="401" y="54" type="curve" smooth="yes"/>
      <point x="401" y="25"/>
      <point x="380" y="-4"/>
      <point x="349" y="-4" type="curve" smooth="yes"/>
      <point x="339" y="-4"/>
      <point x="327" y="1"/>
      <point x="318" y="3" type="curve"/>
      <point x="305" y="0"/>
      <point x="292" y="-1"/>
      <point x="279" y="-1" type="curve" smooth="yes"/>
      <point x="257" y="-1"/>
      <point x="235" y="2"/>
      <point x="213" y="2" type="curve"/>
      <point x="199" y="-15"/>
      <point x="176" y="-23"/>
      <point x="155" y="-23" type="curve" smooth="yes"/>
      <point x="121" y="-23"/>
      <point x="86" y="7"/>
      <point x="86" y="42" type="curve" smooth="yes"/>
      <point x="86" y="73"/>
      <point x="99" y="101"/>
      <point x="99" y="132" type="curve" smooth="yes"/>
      <point x="99" y="598"/>
      <point x="58" y="1063"/>
      <point x="58" y="1529" type="curve" smooth="yes"/>
      <point x="58" y="1556"/>
      <point x="83" y="1571"/>
      <point x="108" y="1571" type="curve" smooth="yes"/>
      <point x="141" y="1571"/>
      <point x="170" y="1546"/>
      <point x="170" y="1512" type="curve" smooth="yes"/>
      <point x="170" y="1266"/>
      <point x="191" y="1019"/>
      <point x="191" y="775" type="curve" smooth="yes"/>
      <point x="191" y="753"/>
      <point x="196" y="732"/>
      <point x="193" y="710" type="curve"/>
      <point x="193" y="701" type="line"/>
      <point x="201" y="523"/>
      <point x="201" y="345"/>
      <point x="201" y="167" type="curve" smooth="yes"/>
    </contour>
  </outline>
</glyph>
<glyph name="M" format="1">
  <advance width="1044"></advance>
  <unicode hex="004D"></unicode>
  <outline>
    <contour>
      <point x="707" y="1517" type="curve"></point>
      <point x="707" y="1529" type="line"></point>
      <point x="713" y="1565"></point>
      <point x="745" y="1587"></point>
      <point x="780" y="1587" type="curve" smooth="yes"></point>
      <point x="806" y="1587"></point>
      <point x="828" y="1560"></point>
      <point x="828" y="1535" type="curve" smooth="yes"></point>
      <point x="828" y="1045"></point>
      <point x="865" y="557"></point>
      <point x="865" y="67" type="curve" smooth="yes"></point>
      <point x="865" y="-2"></point>
      <point x="820" y="-54"></point>
      <point x="784" y="-54" type="curve" smooth="yes"></point>
      <point x="760" y="-54"></point>
      <point x="739" y="-30"></point>
      <point x="739" y="27" type="curve" smooth="yes"></point>
      <point x="739" y="314"></point>
      <point x="731" y="602"></point>
      <point x="731" y="889" type="curve" smooth="yes"></point>
      <point x="731" y="993" type="line"></point>
      <point x="696" y="801"></point>
      <point x="631" y="605"></point>
      <point x="605" y="414" type="curve"></point>
      <point x="605" y="401" type="line"></point>
      <point x="594" y="347"></point>
      <point x="592" y="222"></point>
      <point x="514" y="222" type="curve" smooth="yes"></point>
      <point x="441" y="222"></point>
      <point x="441" y="364"></point>
      <point x="441" y="413" type="curve" smooth="yes"></point>
      <point x="441" y="660"></point>
      <point x="344" y="931"></point>
      <point x="290" y="1172" type="curve"></point>
      <point x="288" y="1090"></point>
      <point x="286" y="1007"></point>
      <point x="286" y="925" type="curve" smooth="yes"></point>
      <point x="286" y="644"></point>
      <point x="303" y="364"></point>
      <point x="303" y="83" type="curve" smooth="yes"></point>
      <point x="303" y="54"></point>
      <point x="292" y="27"></point>
      <point x="272" y="6" type="curve"></point>
      <point x="194" y="6"></point>
      <point x="182" y="68"></point>
      <point x="182" y="132" type="curve" smooth="yes"></point>
      <point x="182" y="243"></point>
      <point x="192" y="353"></point>
      <point x="192" y="464" type="curve" smooth="yes"></point>
      <point x="192" y="729"></point>
      <point x="185" y="993"></point>
      <point x="185" y="1257" type="curve" smooth="yes"></point>
      <point x="185" y="1346"></point>
      <point x="186" y="1434"></point>
      <point x="188" y="1522" type="curve"></point>
      <point x="245" y="1554" type="line"></point>
      <point x="354" y="1546"></point>
      <point x="498" y="674"></point>
      <point x="529" y="528" type="curve"></point>
      <point x="597" y="850"></point>
      <point x="688" y="1188"></point>
    </contour>
  </outline>
</glyph>
<glyph name="N" format="1">
  <advance width="972"></advance>
  <unicode hex="004E"></unicode>
  <outline>
    <contour>
      <point x="655" y="225" type="curve"></point>
      <point x="655" y="463"></point>
      <point x="663" y="701"></point>
      <point x="663" y="939" type="curve" smooth="yes"></point>
      <point x="663" y="1545" type="line"></point>
      <point x="671" y="1580"></point>
      <point x="697" y="1596"></point>
      <point x="730" y="1596" type="curve" smooth="yes"></point>
      <point x="775" y="1596"></point>
      <point x="785" y="1553"></point>
      <point x="785" y="1516" type="curve" smooth="yes"></point>
      <point x="785" y="1504" type="line"></point>
      <point x="776" y="1485"></point>
      <point x="773" y="1465"></point>
      <point x="773" y="1444" type="curve" smooth="yes"></point>
      <point x="773" y="1193"></point>
      <point x="760" y="939"></point>
      <point x="760" y="687" type="curve" smooth="yes"></point>
      <point x="760" y="61" type="line" smooth="yes"></point>
      <point x="760" y="25"></point>
      <point x="737" y="-30"></point>
      <point x="701" y="-30" type="curve" smooth="yes"></point>
      <point x="636" y="-30"></point>
      <point x="409" y="808"></point>
      <point x="286" y="1298" type="curve"></point>
      <point x="286" y="626" type="line" smooth="yes"></point>
      <point x="286" y="431"></point>
      <point x="315" y="237"></point>
      <point x="315" y="42" type="curve" smooth="yes"></point>
      <point x="315" y="16"></point>
      <point x="276" y="-2"></point>
      <point x="243" y="-2" type="curve" smooth="yes"></point>
      <point x="219" y="-2"></point>
      <point x="198" y="7"></point>
      <point x="198" y="30" type="curve" smooth="yes"></point>
      <point x="198" y="65"></point>
      <point x="208" y="109"></point>
      <point x="208" y="177" type="curve" smooth="yes"></point>
      <point x="208" y="371"></point>
      <point x="182" y="688"></point>
      <point x="182" y="812" type="curve" smooth="yes"></point>
      <point x="182" y="1073" type="line" smooth="yes"></point>
      <point x="182" y="1198"></point>
      <point x="196" y="1324"></point>
      <point x="196" y="1449" type="curve" smooth="yes"></point>
      <point x="196" y="1462" type="line" smooth="yes"></point>
      <point x="196" y="1508"></point>
      <point x="204" y="1564"></point>
      <point x="241" y="1564" type="curve" smooth="yes"></point>
      <point x="365" y="1564"></point>
      <point x="654" y="228"></point>
    </contour>
  </outline>
</glyph>
<glyph name="O" format="1">
  <advance width="900"></advance>
  <unicode hex="004F"></unicode>
  <outline>
    <contour>
      <point x="405" y="1585" type="curve" smooth="yes"></point>
      <point x="735" y="1585"></point>
      <point x="714" y="931"></point>
      <point x="714" y="618" type="curve" smooth="yes"></point>
      <point x="714" y="531"></point>
      <point x="697" y="446"></point>
      <point x="696" y="359" type="curve"></point>
      <point x="696" y="350" type="line"></point>
      <point x="686" y="306"></point>
      <point x="683" y="261"></point>
      <point x="683" y="215" type="curve" smooth="yes"></point>
      <point x="683" y="113"></point>
      <point x="607" y="-57"></point>
      <point x="487" y="-57" type="curve" smooth="yes"></point>
      <point x="215" y="-57"></point>
      <point x="189" y="609"></point>
      <point x="189" y="799" type="curve" smooth="yes"></point>
      <point x="189" y="1041"></point>
      <point x="142" y="1585"></point>
    </contour>
    <contour>
      <point x="415" y="1477" type="curve" smooth="yes"></point>
      <point x="283" y="1477"></point>
      <point x="281" y="979"></point>
      <point x="281" y="861" type="curve" smooth="yes"></point>
      <point x="281" y="852" type="line" smooth="yes"></point>
      <point x="281" y="720"></point>
      <point x="326" y="55"></point>
      <point x="491" y="55" type="curve" smooth="yes"></point>
      <point x="609" y="55"></point>
      <point x="621" y="561"></point>
      <point x="621" y="653" type="curve" smooth="yes"></point>
      <point x="621" y="797"></point>
      <point x="616" y="1477"></point>
    </contour>
  </outline>
</glyph>
<glyph name="R" format="1">
  <advance width="756"></advance>
  <unicode hex="0052"></unicode>
  <outline>
    <contour>
      <point x="299" y="859" type="curve"></point>
      <point x="299" y="52" type="line" smooth="yes"></point>
      <point x="299" y="17"></point>
      <point x="293" y="-13"></point>
      <point x="242" y="-13" type="curve" smooth="yes"></point>
      <point x="211" y="-13"></point>
      <point x="190" y="12"></point>
      <point x="190" y="44" type="curve" smooth="yes"></point>
      <point x="190" y="60" type="line" smooth="yes"></point>
      <point x="190" y="460"></point>
      <point x="198" y="861"></point>
      <point x="198" y="1261" type="curve" smooth="yes"></point>
      <point x="198" y="1513" type="line" smooth="yes"></point>
      <point x="198" y="1541"></point>
      <point x="203" y="1557"></point>
      <point x="252" y="1557" type="curve" smooth="yes"></point>
      <point x="429" y="1557"></point>
      <point x="510" y="1370"></point>
      <point x="510" y="1217" type="curve" smooth="yes"></point>
      <point x="510" y="1097"></point>
      <point x="458" y="985"></point>
      <point x="415" y="876" type="curve"></point>
      <point x="418" y="648"></point>
      <point x="555" y="299"></point>
      <point x="626" y="76" type="curve"></point>
      <point x="626" y="71" type="line" smooth="yes"></point>
      <point x="626" y="35"></point>
      <point x="627" y="-21"></point>
      <point x="576" y="-21" type="curve" smooth="yes"></point>
      <point x="542" y="-21"></point>
      <point x="519" y="8"></point>
      <point x="502" y="34" type="curve"></point>
      <point x="502" y="41" type="line"></point>
      <point x="486" y="299"></point>
      <point x="365" y="598"></point>
    </contour>
    <contour>
      <point x="395" y="1207" type="line" smooth="yes"></point>
      <point x="406" y="1265"></point>
      <point x="373" y="1449"></point>
      <point x="303" y="1463" type="curve"></point>
      <point x="302" y="1324"></point>
      <point x="292" y="1184"></point>
      <point x="292" y="1045" type="curve" smooth="yes"></point>
      <point x="292" y="1014"></point>
      <point x="292" y="982"></point>
      <point x="294" y="951" type="curve"></point>
      <point x="319" y="975"></point>
      <point x="342" y="1002"></point>
      <point x="363" y="1030" type="curve"></point>
    </contour>
  </outline>
</glyph>
<glyph name="T" format="1">
  <advance width="720"></advance>
  <unicode hex="0054"></unicode>
  <outline>
    <contour>
      <point x="441" y="925" type="curve" smooth="yes"></point>
      <point x="441" y="765"></point>
      <point x="459" y="615"></point>
      <point x="459" y="454" type="curve" smooth="yes"></point>
      <point x="459" y="331"></point>
      <point x="476" y="209"></point>
      <point x="476" y="86" type="curve" smooth="yes"></point>
      <point x="476" y="46"></point>
      <point x="470" y="-14"></point>
      <point x="417" y="-14" type="curve" smooth="yes"></point>
      <point x="366" y="-14"></point>
      <point x="351" y="48"></point>
      <point x="351" y="89" type="curve" smooth="yes"></point>
      <point x="351" y="198"></point>
      <point x="367" y="307"></point>
      <point x="367" y="416" type="curve" smooth="yes"></point>
      <point x="367" y="629"></point>
      <point x="339" y="841"></point>
      <point x="339" y="1054" type="curve" smooth="yes"></point>
      <point x="339" y="1093"></point>
      <point x="342" y="1163"></point>
      <point x="342" y="1233" type="curve" smooth="yes"></point>
      <point x="342" y="1311"></point>
      <point x="338" y="1389"></point>
      <point x="323" y="1424" type="curve"></point>
      <point x="286" y="1422"></point>
      <point x="249" y="1413"></point>
      <point x="212" y="1413" type="curve" smooth="yes"></point>
      <point x="180" y="1413"></point>
      <point x="145" y="1433"></point>
      <point x="145" y="1469" type="curve" smooth="yes"></point>
      <point x="145" y="1539"></point>
      <point x="464" y="1550"></point>
      <point x="521" y="1550" type="curve" smooth="yes"></point>
      <point x="553" y="1550"></point>
      <point x="587" y="1526"></point>
      <point x="587" y="1492" type="curve" smooth="yes"></point>
      <point x="587" y="1457"></point>
      <point x="557" y="1438"></point>
      <point x="525" y="1438" type="curve" smooth="yes"></point>
      <point x="500" y="1438"></point>
      <point x="476" y="1442"></point>
      <point x="452" y="1442" type="curve" smooth="yes"></point>
      <point x="445" y="1442"></point>
      <point x="438" y="1442"></point>
      <point x="431" y="1441" type="curve"></point>
      <point x="441" y="1357"></point>
      <point x="445" y="1273"></point>
      <point x="445" y="1189" type="curve" smooth="yes"></point>
      <point x="445" y="1102"></point>
      <point x="441" y="1013"></point>
    </contour>
  </outline>
</glyph>
<glyph name="V" format="1">
  <advance width="810"></advance>
  <unicode hex="0056"></unicode>
  <outline>
    <contour>
      <point x="183" y="1563" type="curve" smooth="yes"></point>
      <point x="255" y="1563"></point>
      <point x="398" y="490"></point>
      <point x="429" y="339" type="curve"></point>
      <point x="474" y="733"></point>
      <point x="554" y="1130"></point>
      <point x="554" y="1528" type="curve"></point>
      <point x="573" y="1552"></point>
      <point x="598" y="1569"></point>
      <point x="629" y="1569" type="curve"></point>
      <point x="672" y="1546" type="line"></point>
      <point x="651" y="1356"></point>
      <point x="508" y="-34"></point>
      <point x="445" y="-34" type="curve" smooth="yes"></point>
      <point x="427" y="-34"></point>
      <point x="409" y="-26"></point>
      <point x="397" y="-12" type="curve"></point>
      <point x="307" y="359"></point>
      <point x="200" y="1167"></point>
      <point x="126" y="1523" type="curve"></point>
      <point x="134" y="1549"></point>
      <point x="157" y="1563"></point>
    </contour>
  </outline>
</glyph>
<glyph name="X" format="1">
  <advance width="756"></advance>
  <unicode hex="0058"></unicode>
  <outline>
    <contour>
      <point x="389" y="987" type="curve"></point>
      <point x="378" y="1041"></point>
      <point x="368" y="1089"></point>
      <point x="360" y="1134" type="curve" smooth="yes"></point>
      <point x="302" y="1428"></point>
      <point x="293" y="1520"></point>
      <point x="243" y="1520" type="curve" smooth="yes"></point>
      <point x="222" y="1520"></point>
      <point x="197" y="1508"></point>
      <point x="197" y="1465" type="curve" smooth="yes"></point>
      <point x="197" y="1455"></point>
      <point x="199" y="1442"></point>
      <point x="202" y="1428" type="curve" smooth="yes"></point>
      <point x="237" y="1271"></point>
      <point x="262" y="1159"></point>
      <point x="280" y="1078" type="curve" smooth="yes"></point>
      <point x="319" y="900"></point>
      <point x="323" y="868"></point>
      <point x="323" y="819" type="curve" smooth="yes"></point>
      <point x="323" y="775"></point>
      <point x="308" y="690"></point>
      <point x="283" y="578" type="curve" smooth="yes"></point>
      <point x="251" y="430"></point>
      <point x="203" y="237"></point>
      <point x="151" y="33" type="curve" smooth="yes"></point>
      <point x="150" y="31"></point>
      <point x="150" y="28"></point>
      <point x="150" y="26" type="curve" smooth="yes"></point>
      <point x="150" y="2"></point>
      <point x="183" y="-13"></point>
      <point x="206" y="-13" type="curve" smooth="yes"></point>
      <point x="221" y="-13"></point>
      <point x="236" y="21"></point>
      <point x="256" y="97" type="curve" smooth="yes"></point>
      <point x="283" y="195"></point>
      <point x="321" y="367"></point>
      <point x="380" y="628" type="curve"></point>
      <point x="404" y="524"></point>
      <point x="431" y="366"></point>
      <point x="454" y="235" type="curve" smooth="yes"></point>
      <point x="465" y="172"></point>
      <point x="475" y="116"></point>
      <point x="483" y="75" type="curve" smooth="yes"></point>
      <point x="490" y="40"></point>
      <point x="512" y="26"></point>
      <point x="543" y="26" type="curve" smooth="yes"></point>
      <point x="573" y="26"></point>
      <point x="579" y="50"></point>
      <point x="579" y="80" type="curve" smooth="yes"></point>
      <point x="579" y="134"></point>
      <point x="559" y="182"></point>
      <point x="545" y="248" type="curve" smooth="yes"></point>
      <point x="529" y="323"></point>
      <point x="439" y="765"></point>
      <point x="439" y="796" type="curve" smooth="yes"></point>
      <point x="439" y="899"></point>
      <point x="531" y="1204"></point>
      <point x="572" y="1386" type="curve" smooth="yes"></point>
      <point x="584" y="1439"></point>
      <point x="592" y="1481"></point>
      <point x="592" y="1505" type="curve" smooth="yes"></point>
      <point x="592" y="1536"></point>
      <point x="568" y="1550"></point>
      <point x="542" y="1550" type="curve" smooth="yes"></point>
      <point x="515" y="1550"></point>
      <point x="501" y="1518"></point>
      <point x="478" y="1415" type="curve" smooth="yes"></point>
      <point x="458" y="1329"></point>
      <point x="433" y="1194"></point>
    </contour>
  </outline>
</glyph>
<glyph name="Z" format="1">
  <advance width="702"></advance>
  <unicode hex="005A"></unicode>
  <outline>
    <contour>
      <point x="293" y="85" type="curve"></point>
      <point x="316" y="86"></point>
      <point x="359" y="93"></point>
      <point x="401" y="93" type="curve" smooth="yes"></point>
      <point x="456" y="93"></point>
      <point x="509" y="81"></point>
      <point x="509" y="30" type="curve" smooth="yes"></point>
      <point x="509" y="21" type="line"></point>
      <point x="477" y="-11" type="line"></point>
      <point x="393" y="-11"></point>
      <point x="308" y="-19"></point>
      <point x="224" y="-19" type="curve" smooth="yes"></point>
      <point x="193" y="-19"></point>
      <point x="176" y="5"></point>
      <point x="166" y="31" type="curve"></point>
      <point x="269" y="197"></point>
      <point x="399" y="1235"></point>
      <point x="413" y="1451" type="curve"></point>
      <point x="388" y="1449"></point>
      <point x="341" y="1441"></point>
      <point x="296" y="1441" type="curve" smooth="yes"></point>
      <point x="239" y="1441"></point>
      <point x="185" y="1453"></point>
      <point x="185" y="1506" type="curve" smooth="yes"></point>
      <point x="185" y="1515" type="line"></point>
      <point x="213" y="1549" type="line"></point>
      <point x="213" y="1550" type="line"></point>
      <point x="232" y="1545"></point>
      <point x="251" y="1543"></point>
      <point x="271" y="1543" type="curve" smooth="yes"></point>
      <point x="335" y="1543"></point>
      <point x="400" y="1564"></point>
      <point x="464" y="1564" type="curve" smooth="yes"></point>
      <point x="496" y="1564"></point>
      <point x="520" y="1536"></point>
      <point x="520" y="1505" type="curve" smooth="yes"></point>
      <point x="520" y="1051"></point>
      <point x="398" y="494"></point>
    </contour>
  </outline>
</glyph>
<glyph name="asciicircum" format="1">
  <advance width="594"></advance>
  <unicode hex="005E"></unicode>
  <outline>
    <contour>
      <point x="254" y="1575" type="curve" smooth="yes"></point>
      <point x="254" y="1612"></point>
      <point x="274" y="1656"></point>
      <point x="317" y="1656" type="curve" smooth="yes"></point>
      <point x="357" y="1656"></point>
      <point x="391" y="1623"></point>
      <point x="391" y="1583" type="curve" smooth="yes"></point>
      <point x="391" y="1546"></point>
      <point x="365" y="1515"></point>
      <point x="327" y="1515" type="curve" smooth="yes"></point>
      <point x="290" y="1515"></point>
      <point x="254" y="1534"></point>
    </contour>
  </outline>
</glyph>
<glyph name="grave" format="1">
  <advance width="774"></advance>
  <unicode hex="0060"></unicode>
  <outline>
    <contour>
      <point x="322" y="1752" type="curve" smooth="yes"></point>
      <point x="337" y="1752"></point>
      <point x="647" y="1599"></point>
      <point x="647" y="1557" type="curve" smooth="yes"></point>
      <point x="647" y="1549"></point>
      <point x="641" y="1543"></point>
      <point x="632" y="1543" type="curve" smooth="yes"></point>
      <point x="594" y="1543"></point>
      <point x="254" y="1645"></point>
      <point x="254" y="1672" type="curve" smooth="yes"></point>
      <point x="254" y="1699"></point>
      <point x="286" y="1752"></point>
    </contour>
  </outline>
</glyph>
<glyph name="a" format="1">
  <advance width="810"></advance>
  <unicode hex="0061"></unicode>
  <outline>
    <contour>
      <point x="503" y="375" type="curve"></point>
      <point x="498" y="400"></point>
      <point x="497" y="425"></point>
      <point x="497" y="451" type="curve" smooth="yes"></point>
      <point x="497" y="680"></point>
      <point x="462" y="907"></point>
      <point x="442" y="1134" type="curve"></point>
      <point x="399" y="897"></point>
      <point x="340" y="551"></point>
      <point x="322" y="408" type="curve"></point>
      <point x="357" y="385"></point>
      <point x="459" y="378"></point>
    </contour>
    <contour>
      <point x="516" y="302" type="curve"></point>
      <point x="314" y="332" type="line"></point>
      <point x="270" y="174"></point>
      <point x="289" y="-11"></point>
      <point x="199" y="-11" type="curve" smooth="yes"></point>
      <point x="169" y="-11"></point>
      <point x="134" y="11"></point>
      <point x="134" y="44" type="curve" smooth="yes"></point>
      <point x="134" y="49"></point>
      <point x="138" y="57"></point>
      <point x="139" y="62" type="curve" smooth="yes"></point>
      <point x="226" y="397"></point>
      <point x="299" y="759"></point>
      <point x="344" y="1100" type="curve" smooth="yes"></point>
      <point x="353" y="1169"></point>
      <point x="351" y="1317"></point>
      <point x="388" y="1373" type="curve"></point>
      <point x="457" y="1373" type="line" smooth="yes"></point>
      <point x="489" y="1373"></point>
      <point x="527" y="1359"></point>
      <point x="527" y="1321" type="curve" smooth="yes"></point>
      <point x="527" y="1016"></point>
      <point x="610" y="693"></point>
      <point x="610" y="416" type="curve" smooth="yes"></point>
      <point x="610" y="376"></point>
      <point x="632" y="330"></point>
      <point x="632" y="290" type="curve" smooth="yes"></point>
      <point x="632" y="239"></point>
      <point x="671" y="99"></point>
      <point x="671" y="41" type="curve" smooth="yes"></point>
      <point x="671" y="39" type="line" smooth="yes"></point>
      <point x="671" y="15"></point>
      <point x="660" y="-10"></point>
      <point x="637" y="-19" type="curve"></point>
      <point x="588" y="-19"></point>
      <point x="546" y="-10"></point>
      <point x="546" y="49" type="curve" smooth="yes"></point>
      <point x="546" y="136"></point>
      <point x="516" y="302"></point>
    </contour>
  </outline>
</glyph>
<glyph name="b" format="1">
  <advance width="491"/>
  <unicode hex="0062"/>
  <outline>
    <contour>
      <point x="194" y="1068" type="curve" smooth="yes"/>
      <point x="194" y="763" type="line"/>
      <point x="296" y="766"/>
      <point x="302" y="939"/>
      <point x="302" y="1012" type="curve" smooth="yes"/>
      <point x="302" y="1076"/>
      <point x="303" y="1278"/>
      <point x="218" y="1288" type="curve"/>
      <point x="199" y="1247"/>
      <point x="194" y="1128"/>
    </contour>
    <contour>
      <point x="188" y="333" type="curve" smooth="yes"/>
      <point x="188" y="278"/>
      <point x="181" y="231"/>
      <point x="181" y="186" type="curve" smooth="yes"/>
      <point x="181" y="183"/>
      <point x="183" y="179"/>
      <point x="183" y="176" type="curve" smooth="yes"/>
      <point x="183" y="84" type="line"/>
      <point x="282" y="107"/>
      <point x="321" y="217"/>
      <point x="321" y="308" type="curve" smooth="yes"/>
      <point x="321" y="400"/>
      <point x="312" y="619"/>
      <point x="197" y="643" type="curve"/>
      <point x="190" y="540"/>
      <point x="188" y="436"/>
    </contour>
    <contour>
      <point x="336" y="705" type="curve"/>
      <point x="425" y="620"/>
      <point x="431" y="475"/>
      <point x="431" y="360" type="curve" smooth="yes"/>
      <point x="431" y="167"/>
      <point x="349" y="-20"/>
      <point x="129" y="-20" type="curve" smooth="yes"/>
      <point x="67" y="-20"/>
      <point x="65" y="42"/>
      <point x="65" y="88" type="curve" smooth="yes"/>
      <point x="65" y="234"/>
      <point x="85" y="378"/>
      <point x="85" y="524" type="curve" smooth="yes"/>
      <point x="85" y="740"/>
      <point x="94" y="957"/>
      <point x="94" y="1173" type="curve" smooth="yes"/>
      <point x="94" y="1208"/>
      <point x="85" y="1244"/>
      <point x="83" y="1279" type="curve"/>
      <point x="83" y="1290" type="line" smooth="yes"/>
      <point x="83" y="1338"/>
      <point x="92" y="1383"/>
      <point x="150" y="1383" type="curve" smooth="yes"/>
      <point x="345" y="1383"/>
      <point x="419" y="1212"/>
      <point x="419" y="1028" type="curve" smooth="yes"/>
      <point x="419" y="883"/>
      <point x="397" y="791"/>
    </contour>
  </outline>
</glyph>
<glyph name="g" format="1">
  <advance width="638"/>
  <unicode hex="0067"/>
  <outline>
    <contour>
      <point x="338" y="-16" type="curve" smooth="yes"/>
      <point x="44" y="-16"/>
      <point x="46" y="356"/>
      <point x="46" y="622" type="curve" smooth="yes"/>
      <point x="46" y="897"/>
      <point x="32" y="1354"/>
      <point x="348" y="1354" type="curve" smooth="yes"/>
      <point x="383" y="1354"/>
      <point x="435" y="1349"/>
      <point x="435" y="1302" type="curve" smooth="yes"/>
      <point x="435" y="1268"/>
      <point x="401" y="1247"/>
      <point x="370" y="1247" type="curve" smooth="yes"/>
      <point x="355" y="1247"/>
      <point x="341" y="1252"/>
      <point x="327" y="1252" type="curve" smooth="yes"/>
      <point x="178" y="1252"/>
      <point x="168" y="732"/>
      <point x="168" y="629" type="curve" smooth="yes"/>
      <point x="168" y="434"/>
      <point x="175" y="91"/>
      <point x="363" y="91" type="curve" smooth="yes"/>
      <point x="457" y="91"/>
      <point x="462" y="316"/>
      <point x="462" y="417" type="curve" smooth="yes"/>
      <point x="462" y="450" type="line" smooth="yes"/>
      <point x="462" y="511" type="line"/>
      <point x="447" y="519"/>
      <point x="431" y="519"/>
      <point x="414" y="519" type="curve" smooth="yes"/>
      <point x="403" y="519"/>
      <point x="389" y="518"/>
      <point x="374" y="518" type="curve" smooth="yes"/>
      <point x="339" y="518"/>
      <point x="303" y="524"/>
      <point x="303" y="565" type="curve" smooth="yes"/>
      <point x="303" y="606"/>
      <point x="337" y="624"/>
      <point x="373" y="624" type="curve"/>
      <point x="373" y="623" type="line"/>
      <point x="401" y="623" type="line" smooth="yes"/>
      <point x="465" y="623"/>
      <point x="585" y="619"/>
      <point x="585" y="560" type="curve" smooth="yes"/>
      <point x="585" y="509"/>
      <point x="563" y="462"/>
      <point x="563" y="411" type="curve" smooth="yes"/>
      <point x="563" y="341"/>
      <point x="573" y="266"/>
      <point x="573" y="194" type="curve" smooth="yes"/>
      <point x="573" y="50"/>
      <point x="452" y="-16"/>
    </contour>
  </outline>
</glyph>
<glyph name="h" format="1">
  <advance width="792"></advance>
  <unicode hex="0068"></unicode>
  <outline>
    <contour>
      <point x="481" y="548" type="curve" smooth="yes"></point>
      <point x="481" y="556" type="line"></point>
      <point x="482" y="576"></point>
      <point x="484" y="595"></point>
      <point x="484" y="615" type="curve" smooth="yes"></point>
      <point x="484" y="621"></point>
      <point x="472" y="628"></point>
      <point x="472" y="634" type="curve" smooth="yes"></point>
      <point x="472" y="636" type="line"></point>
      <point x="459" y="633"></point>
      <point x="447" y="632"></point>
      <point x="435" y="632" type="curve" smooth="yes"></point>
      <point x="390" y="632"></point>
      <point x="350" y="649"></point>
      <point x="303" y="651" type="curve"></point>
      <point x="302" y="576"></point>
      <point x="303" y="500"></point>
      <point x="303" y="425" type="curve" smooth="yes"></point>
      <point x="303" y="416" type="line" smooth="yes"></point>
      <point x="303" y="304"></point>
      <point x="315" y="191"></point>
      <point x="315" y="79" type="curve" smooth="yes"></point>
      <point x="315" y="44"></point>
      <point x="297" y="5"></point>
      <point x="257" y="5" type="curve" smooth="yes"></point>
      <point x="197" y="5"></point>
      <point x="185" y="134"></point>
      <point x="185" y="283" type="curve" smooth="yes"></point>
      <point x="185" y="391"></point>
      <point x="191" y="509"></point>
      <point x="191" y="595" type="curve" smooth="yes"></point>
      <point x="191" y="643"></point>
      <point x="194" y="681"></point>
      <point x="188" y="702" type="curve"></point>
      <point x="188" y="712" type="line"></point>
      <point x="191" y="752"></point>
      <point x="196" y="792"></point>
      <point x="196" y="832" type="curve" smooth="yes"></point>
      <point x="196" y="986"></point>
      <point x="182" y="1140"></point>
      <point x="182" y="1294" type="curve" smooth="yes"></point>
      <point x="182" y="1325"></point>
      <point x="208" y="1355"></point>
      <point x="240" y="1355" type="curve" smooth="yes"></point>
      <point x="298" y="1355"></point>
      <point x="305" y="1276"></point>
      <point x="305" y="1233" type="curve" smooth="yes"></point>
      <point x="305" y="1063"></point>
      <point x="297" y="892"></point>
      <point x="297" y="722" type="curve"></point>
      <point x="334" y="712"></point>
      <point x="372" y="712"></point>
      <point x="409" y="712" type="curve" smooth="yes"></point>
      <point x="483" y="712" type="line"></point>
      <point x="487" y="719"></point>
      <point x="488" y="729"></point>
      <point x="488" y="738" type="curve" smooth="yes"></point>
      <point x="488" y="932"></point>
      <point x="461" y="1125"></point>
      <point x="461" y="1320" type="curve" smooth="yes"></point>
      <point x="461" y="1351"></point>
      <point x="490" y="1374"></point>
      <point x="520" y="1374" type="curve" smooth="yes"></point>
      <point x="541" y="1374"></point>
      <point x="560" y="1362"></point>
      <point x="580" y="1356" type="curve"></point>
      <point x="580" y="912"></point>
      <point x="617" y="208"></point>
      <point x="619" y="62" type="curve" smooth="yes"></point>
      <point x="619" y="20"></point>
      <point x="582" y="0"></point>
      <point x="548" y="0" type="curve" smooth="yes"></point>
      <point x="458" y="0"></point>
      <point x="481" y="400"></point>
    </contour>
  </outline>
</glyph>
<glyph name="j" format="1">
  <advance width="520"/>
  <unicode hex="006A"/>
  <outline>
    <contour>
      <point x="352" y="164" type="line" smooth="yes"/>
      <point x="352" y="46"/>
      <point x="329" y="-193"/>
      <point x="41" y="-193" type="curve" smooth="yes"/>
      <point x="21" y="-193"/>
      <point x="17" y="-183"/>
      <point x="17" y="-168" type="curve" smooth="yes"/>
      <point x="17" y="-158"/>
      <point x="19" y="-146"/>
      <point x="19" y="-134" type="curve" smooth="yes"/>
      <point x="19" y="-106"/>
      <point x="130" y="-102"/>
      <point x="181" y="-46" type="curve" smooth="yes"/>
      <point x="229" y="6"/>
      <point x="240" y="117"/>
      <point x="240" y="187" type="curve" smooth="yes"/>
      <point x="240" y="536"/>
      <point x="217" y="884"/>
      <point x="217" y="1233" type="curve" smooth="yes"/>
      <point x="217" y="1242" type="line"/>
      <point x="175" y="1246"/>
      <point x="60" y="1249"/>
      <point x="60" y="1292" type="curve" smooth="yes"/>
      <point x="60" y="1322"/>
      <point x="103" y="1339"/>
      <point x="127" y="1339" type="curve" smooth="yes"/>
      <point x="187" y="1339"/>
      <point x="492" y="1325"/>
      <point x="492" y="1293" type="curve" smooth="yes"/>
      <point x="492" y="1262"/>
      <point x="464" y="1245"/>
      <point x="436" y="1245" type="curve" smooth="yes"/>
      <point x="331" y="1245" type="line"/>
      <point x="331" y="963"/>
      <point x="352" y="664"/>
      <point x="352" y="382" type="curve" smooth="yes"/>
    </contour>
  </outline>
</glyph>
<glyph name="k" format="1">
  <advance width="864"></advance>
  <unicode hex="006B"></unicode>
  <outline>
    <contour>
      <point x="688" y="1289" type="curve"></point>
      <point x="687" y="1284"></point>
      <point x="496" y="976"></point>
      <point x="468" y="919" type="curve"></point>
      <point x="468" y="878"></point>
      <point x="464" y="838"></point>
      <point x="464" y="797" type="curve" smooth="yes"></point>
      <point x="464" y="678"></point>
      <point x="590" y="252"></point>
      <point x="652" y="149" type="curve" smooth="yes"></point>
      <point x="677" y="108"></point>
      <point x="718" y="71"></point>
      <point x="718" y="19" type="curve" smooth="yes"></point>
      <point x="718" y="-13"></point>
      <point x="690" y="-35"></point>
      <point x="660" y="-35" type="curve" smooth="yes"></point>
      <point x="521" y="-35"></point>
      <point x="387" y="626"></point>
      <point x="366" y="752" type="curve"></point>
      <point x="310" y="641"></point>
      <point x="292" y="519"></point>
      <point x="292" y="396" type="curve" smooth="yes"></point>
      <point x="292" y="17" type="line" smooth="yes"></point>
      <point x="292" y="-14"></point>
      <point x="278" y="-31"></point>
      <point x="250" y="-31" type="curve" smooth="yes"></point>
      <point x="210" y="-31"></point>
      <point x="182" y="-7"></point>
      <point x="182" y="34" type="curve" smooth="yes"></point>
      <point x="182" y="656" type="line" smooth="yes"></point>
      <point x="182" y="877"></point>
      <point x="221" y="1097"></point>
      <point x="221" y="1318" type="curve"></point>
      <point x="232" y="1342"></point>
      <point x="256" y="1357"></point>
      <point x="282" y="1357" type="curve" smooth="yes"></point>
      <point x="316" y="1357"></point>
      <point x="345" y="1328"></point>
      <point x="345" y="1294" type="curve" smooth="yes"></point>
      <point x="345" y="1288" type="line"></point>
      <point x="319" y="1243"></point>
      <point x="318" y="1038"></point>
      <point x="318" y="915" type="curve" smooth="yes"></point>
      <point x="318" y="842" type="line"></point>
      <point x="357" y="912"></point>
      <point x="556" y="1344"></point>
      <point x="609" y="1344" type="curve" smooth="yes"></point>
      <point x="642" y="1344"></point>
      <point x="688" y="1329"></point>
    </contour>
  </outline>
</glyph>
<glyph name="l" format="1">
  <advance width="684"></advance>
  <unicode hex="006C"></unicode>
  <outline>
    <contour>
      <point x="307" y="545" type="line" smooth="yes"></point>
      <point x="307" y="435"></point>
      <point x="299" y="333"></point>
      <point x="299" y="219" type="curve" smooth="yes"></point>
      <point x="299" y="154"></point>
      <point x="308" y="78"></point>
      <point x="368" y="78" type="curve" smooth="yes"></point>
      <point x="387" y="78"></point>
      <point x="420" y="81"></point>
      <point x="453" y="81" type="curve" smooth="yes"></point>
      <point x="507" y="81"></point>
      <point x="563" y="72"></point>
      <point x="563" y="21" type="curve" smooth="yes"></point>
      <point x="563" y="-11"></point>
      <point x="528" y="-29"></point>
      <point x="501" y="-33" type="curve"></point>
      <point x="442" y="-14"></point>
      <point x="380" y="-9"></point>
      <point x="318" y="-9" type="curve"></point>
      <point x="297" y="-21"></point>
      <point x="272" y="-28"></point>
      <point x="248" y="-28" type="curve" smooth="yes"></point>
      <point x="214" y="-28"></point>
      <point x="190" y="7"></point>
      <point x="190" y="39" type="curve" smooth="yes"></point>
      <point x="190" y="344"></point>
      <point x="216" y="649"></point>
      <point x="216" y="954" type="curve" smooth="yes"></point>
      <point x="216" y="969" type="line"></point>
      <point x="210" y="1033"></point>
      <point x="204" y="1097"></point>
      <point x="204" y="1161" type="curve" smooth="yes"></point>
      <point x="204" y="1207"></point>
      <point x="205" y="1355"></point>
      <point x="275" y="1355" type="curve" smooth="yes"></point>
      <point x="303" y="1355"></point>
      <point x="327" y="1332"></point>
      <point x="327" y="1304" type="curve" smooth="yes"></point>
      <point x="327" y="1252"></point>
      <point x="313" y="1200"></point>
      <point x="313" y="1148" type="curve" smooth="yes"></point>
      <point x="313" y="984"></point>
      <point x="319" y="820"></point>
      <point x="319" y="656" type="curve"></point>
      <point x="308" y="630"></point>
      <point x="307" y="599"></point>
      <point x="307" y="570" type="curve" smooth="yes"></point>
    </contour>
  </outline>
</glyph>
<glyph name="n" format="1">
  <advance width="1044"></advance>
  <unicode hex="006E"></unicode>
  <outline>
    <contour>
      <point x="721" y="189" type="curve"></point>
      <point x="754" y="534"></point>
      <point x="762" y="881"></point>
      <point x="762" y="1228" type="curve" smooth="yes"></point>
      <point x="762" y="1244"></point>
      <point x="759" y="1264"></point>
      <point x="759" y="1283" type="curve" smooth="yes"></point>
      <point x="759" y="1315"></point>
      <point x="767" y="1344"></point>
      <point x="810" y="1344" type="curve" smooth="yes"></point>
      <point x="852" y="1344"></point>
      <point x="868" y="1302"></point>
      <point x="868" y="1264" type="curve" smooth="yes"></point>
      <point x="868" y="1109" type="line"></point>
      <point x="867" y="951"></point>
      <point x="846" y="92"></point>
      <point x="794" y="11" type="curve"></point>
      <point x="771" y="4"></point>
      <point x="746" y="-6"></point>
      <point x="722" y="-6" type="curve" smooth="yes"></point>
      <point x="663" y="-6"></point>
      <point x="672" y="55"></point>
      <point x="653" y="93" type="curve" smooth="yes"></point>
      <point x="653" y="95"></point>
      <point x="654" y="98"></point>
      <point x="654" y="102" type="curve" smooth="yes"></point>
      <point x="654" y="219"></point>
      <point x="350" y="1016"></point>
      <point x="294" y="1145" type="curve"></point>
      <point x="294" y="114" type="line"></point>
      <point x="301" y="99"></point>
      <point x="315" y="83"></point>
      <point x="315" y="66" type="curve" smooth="yes"></point>
      <point x="315" y="32"></point>
      <point x="287" y="2"></point>
      <point x="253" y="2" type="curve" smooth="yes"></point>
      <point x="194" y="2"></point>
      <point x="186" y="84"></point>
      <point x="186" y="127" type="curve" smooth="yes"></point>
      <point x="186" y="361"></point>
      <point x="182" y="595"></point>
      <point x="182" y="829" type="curve" smooth="yes"></point>
      <point x="182" y="956"></point>
      <point x="194" y="1084"></point>
      <point x="194" y="1211" type="curve" smooth="yes"></point>
      <point x="194" y="1274"></point>
      <point x="215" y="1322"></point>
      <point x="269" y="1362" type="curve"></point>
      <point x="269" y="1349" type="line"></point>
      <point x="274" y="1352"></point>
      <point x="279" y="1354"></point>
      <point x="284" y="1354" type="curve" smooth="yes"></point>
      <point x="424" y="1354"></point>
      <point x="666" y="324"></point>
    </contour>
  </outline>
</glyph>
<glyph name="r" format="1">
  <advance width="720"></advance>
  <unicode hex="0072"></unicode>
  <outline>
    <contour>
      <point x="401" y="1098" type="curve" smooth="yes"></point>
      <point x="401" y="1175"></point>
      <point x="395" y="1287"></point>
      <point x="293" y="1289" type="curve"></point>
      <point x="291" y="1280"></point>
      <point x="286" y="1269"></point>
      <point x="286" y="1260" type="curve" smooth="yes"></point>
      <point x="286" y="1102"></point>
      <point x="293" y="945"></point>
      <point x="294" y="787" type="curve"></point>
      <point x="366" y="824"></point>
      <point x="401" y="1023"></point>
    </contour>
    <contour>
      <point x="545" y="-35" type="curve" smooth="yes"></point>
      <point x="421" y="-35"></point>
      <point x="359" y="573"></point>
      <point x="310" y="686" type="curve"></point>
      <point x="285" y="686" type="line"></point>
      <point x="285" y="615"></point>
      <point x="283" y="540"></point>
      <point x="283" y="464" type="curve" smooth="yes"></point>
      <point x="283" y="319"></point>
      <point x="289" y="169"></point>
      <point x="322" y="37" type="curve"></point>
      <point x="299" y="-18" type="line"></point>
      <point x="242" y="-18" type="line"></point>
      <point x="215" y="12" type="line"></point>
      <point x="216" y="58"></point>
      <point x="217" y="103"></point>
      <point x="217" y="149" type="curve" smooth="yes"></point>
      <point x="217" y="518"></point>
      <point x="182" y="898"></point>
      <point x="182" y="1268" type="curve" smooth="yes"></point>
      <point x="182" y="1314"></point>
      <point x="193" y="1365"></point>
      <point x="250" y="1365" type="curve" smooth="yes"></point>
      <point x="384" y="1365"></point>
      <point x="503" y="1295"></point>
      <point x="503" y="1149" type="curve" smooth="yes"></point>
      <point x="503" y="1005" type="line" smooth="yes"></point>
      <point x="503" y="912"></point>
      <point x="440" y="817"></point>
      <point x="398" y="736" type="curve"></point>
      <point x="444" y="533"></point>
      <point x="470" y="296"></point>
      <point x="557" y="107" type="curve" smooth="yes"></point>
      <point x="569" y="80"></point>
      <point x="591" y="47"></point>
      <point x="591" y="17" type="curve" smooth="yes"></point>
      <point x="591" y="-10"></point>
      <point x="574" y="-35"></point>
    </contour>
  </outline>
</glyph>
<glyph name="u" format="1">
  <advance width="882"></advance>
  <unicode hex="0075"></unicode>
  <outline>
    <contour>
      <point x="426" y="-31" type="curve" smooth="yes"></point>
      <point x="221" y="-31"></point>
      <point x="196" y="257"></point>
      <point x="196" y="473" type="curve"></point>
      <point x="191" y="693"></point>
      <point x="191" y="821"></point>
      <point x="191" y="1013" type="curve" smooth="yes"></point>
      <point x="191" y="1114"></point>
      <point x="185" y="1203"></point>
      <point x="182" y="1306" type="curve"></point>
      <point x="196" y="1337"></point>
      <point x="211" y="1349"></point>
      <point x="226" y="1349" type="curve" smooth="yes"></point>
      <point x="259" y="1349"></point>
      <point x="288" y="1287"></point>
      <point x="288" y="1232" type="curve" smooth="yes"></point>
      <point x="288" y="675" type="line" smooth="yes"></point>
      <point x="288" y="530"></point>
      <point x="317" y="386"></point>
      <point x="317" y="241" type="curve" smooth="yes"></point>
      <point x="317" y="177"></point>
      <point x="332" y="91"></point>
      <point x="447" y="91" type="curve" smooth="yes"></point>
      <point x="584" y="91"></point>
      <point x="593" y="862"></point>
      <point x="593" y="1192" type="curve" smooth="yes"></point>
      <point x="593" y="1307" type="line" smooth="yes"></point>
      <point x="593" y="1319"></point>
      <point x="592" y="1330"></point>
      <point x="592" y="1341" type="curve" smooth="yes"></point>
      <point x="592" y="1369"></point>
      <point x="599" y="1389"></point>
      <point x="648" y="1389" type="curve" smooth="yes"></point>
      <point x="708" y="1389"></point>
      <point x="711" y="1336"></point>
      <point x="711" y="1290" type="curve" smooth="yes"></point>
      <point x="711" y="1221"></point>
      <point x="697" y="1151"></point>
      <point x="697" y="1084" type="curve" smooth="yes"></point>
      <point x="697" y="1027"></point>
      <point x="688" y="970"></point>
      <point x="688" y="913" type="curve" smooth="yes"></point>
      <point x="688" y="901"></point>
      <point x="690" y="890"></point>
      <point x="690" y="878" type="curve" smooth="yes"></point>
      <point x="690" y="676"></point>
      <point x="691" y="-31"></point>
    </contour>
  </outline>
</glyph>
<glyph name="v" format="1">
  <advance width="666"/>
  <unicode hex="0076"/>
  <outline>
    <contour>
      <point x="343" y="247" type="curve"/>
      <point x="420" y="630"/>
      <point x="468" y="1019"/>
      <point x="531" y="1396" type="curve"/>
      <point x="577" y="1396" type="line" smooth="yes"/>
      <point x="600" y="1396"/>
      <point x="624" y="1377"/>
      <point x="624" y="1351" type="curve" smooth="yes"/>
      <point x="624" y="1170"/>
      <point x="544" y="998"/>
      <point x="515" y="821" type="curve" smooth="yes"/>
      <point x="488" y="658"/>
      <point x="480" y="-24"/>
      <point x="304" y="-24" type="curve"/>
      <point x="266" y="7" type="line"/>
      <point x="266" y="377"/>
      <point x="176" y="754"/>
      <point x="84" y="1110" type="curve" smooth="yes"/>
      <point x="71" y="1161"/>
      <point x="28" y="1274"/>
      <point x="28" y="1319" type="curve" smooth="yes"/>
      <point x="28" y="1345"/>
      <point x="53" y="1366"/>
      <point x="78" y="1366" type="curve" smooth="yes"/>
      <point x="215" y="1366"/>
      <point x="320" y="404"/>
    </contour>
  </outline>
</glyph>
<glyph name="x" format="1">
  <advance width="738"></advance>
  <unicode hex="0078"></unicode>
  <outline>
    <contour>
      <point x="365" y="894" type="curve"></point>
      <point x="380" y="981"></point>
      <point x="399" y="1069"></point>
      <point x="399" y="1158" type="curve" smooth="yes"></point>
      <point x="399" y="1181"></point>
      <point x="398" y="1204"></point>
      <point x="398" y="1225" type="curve" smooth="yes"></point>
      <point x="398" y="1286"></point>
      <point x="408" y="1335"></point>
      <point x="490" y="1357" type="curve"></point>
      <point x="528" y="1309" type="line"></point>
      <point x="493" y="1258"></point>
      <point x="493" y="1193"></point>
      <point x="493" y="1133" type="curve" smooth="yes"></point>
      <point x="493" y="1109" type="line"></point>
      <point x="461" y="1021"></point>
      <point x="415" y="741"></point>
      <point x="415" y="646" type="curve" smooth="yes"></point>
      <point x="415" y="475"></point>
      <point x="563" y="175"></point>
      <point x="563" y="54" type="curve" smooth="yes"></point>
      <point x="563" y="24"></point>
      <point x="536" y="3"></point>
      <point x="508" y="3" type="curve" smooth="yes"></point>
      <point x="424" y="3"></point>
      <point x="379" y="353"></point>
      <point x="362" y="433" type="curve"></point>
      <point x="342" y="320"></point>
      <point x="344" y="203"></point>
      <point x="310" y="93" type="curve"></point>
      <point x="311" y="86"></point>
      <point x="311" y="78"></point>
      <point x="311" y="69" type="curve" smooth="yes"></point>
      <point x="311" y="33"></point>
      <point x="300" y="-7"></point>
      <point x="258" y="-7" type="curve" smooth="yes"></point>
      <point x="231" y="-7"></point>
      <point x="196" y="8"></point>
      <point x="196" y="40" type="curve" smooth="yes"></point>
      <point x="196" y="253"></point>
      <point x="312" y="447"></point>
      <point x="312" y="660" type="curve" smooth="yes"></point>
      <point x="312" y="733"></point>
      <point x="218" y="1172"></point>
      <point x="185" y="1219" type="curve"></point>
      <point x="185" y="1241" type="line"></point>
      <point x="172" y="1254"></point>
      <point x="166" y="1274"></point>
      <point x="166" y="1292" type="curve" smooth="yes"></point>
      <point x="166" y="1322"></point>
      <point x="203" y="1334"></point>
      <point x="227" y="1334" type="curve" smooth="yes"></point>
      <point x="301" y="1334"></point>
      <point x="347" y="979"></point>
    </contour>
  </outline>
</glyph>
<glyph name="y" format="1">
  <advance width="513"/>
  <unicode hex="0079"/>
  <outline>
    <contour>
      <point x="355" y="109" type="line" smooth="yes"/>
      <point x="355" y="53"/>
      <point x="350" y="-28"/>
      <point x="288" y="-28" type="curve" smooth="yes"/>
      <point x="261" y="-28"/>
      <point x="241" y="-6"/>
      <point x="231" y="17" type="curve"/>
      <point x="254" y="62"/>
      <point x="254" y="300"/>
      <point x="254" y="364" type="curve" smooth="yes"/>
      <point x="254" y="464"/>
      <point x="234" y="564"/>
      <point x="230" y="664" type="curve"/>
      <point x="230" y="717" type="line"/>
      <point x="190" y="825"/>
      <point x="30" y="1202"/>
      <point x="30" y="1288" type="curve" smooth="yes"/>
      <point x="30" y="1299" type="line"/>
      <point x="76" y="1333" type="line"/>
      <point x="155" y="1331"/>
      <point x="238" y="951"/>
      <point x="264" y="877" type="curve"/>
      <point x="294" y="954"/>
      <point x="334" y="1362"/>
      <point x="424" y="1362" type="curve" smooth="yes"/>
      <point x="448" y="1362"/>
      <point x="474" y="1346"/>
      <point x="474" y="1319" type="curve" smooth="yes"/>
      <point x="474" y="1118"/>
      <point x="359" y="932"/>
      <point x="355" y="726" type="curve"/>
    </contour>
  </outline>
</glyph>
<glyph name="z" format="1">
  <advance width="738"></advance>
  <unicode hex="007A"></unicode>
  <outline>
    <contour>
      <point x="469" y="1256" type="curve"></point>
      <point x="413" y="1254"></point>
      <point x="358" y="1244"></point>
      <point x="302" y="1244" type="curve" smooth="yes"></point>
      <point x="272" y="1244"></point>
      <point x="249" y="1272"></point>
      <point x="249" y="1301" type="curve" smooth="yes"></point>
      <point x="249" y="1356"></point>
      <point x="409" y="1359"></point>
      <point x="474" y="1359" type="curve"></point>
      <point x="513" y="1359"></point>
      <point x="575" y="1355"></point>
      <point x="575" y="1302" type="curve" smooth="yes"></point>
      <point x="575" y="1172"></point>
      <point x="498" y="1059"></point>
      <point x="478" y="933" type="curve" smooth="yes"></point>
      <point x="433" y="653"></point>
      <point x="314" y="264"></point>
      <point x="282" y="105" type="curve"></point>
      <point x="317" y="105" type="line" smooth="yes"></point>
      <point x="346" y="105"></point>
      <point x="374" y="111"></point>
      <point x="403" y="111" type="curve"></point>
      <point x="403" y="112" type="line"></point>
      <point x="438" y="112"></point>
      <point x="486" y="109"></point>
      <point x="486" y="62" type="curve" smooth="yes"></point>
      <point x="486" y="25"></point>
      <point x="445" y="12"></point>
      <point x="415" y="12" type="curve" smooth="yes"></point>
      <point x="375" y="12"></point>
      <point x="334" y="18"></point>
      <point x="294" y="18" type="curve" smooth="yes"></point>
      <point x="267" y="18"></point>
      <point x="248" y="-4"></point>
      <point x="221" y="-4" type="curve" smooth="yes"></point>
      <point x="194" y="-4"></point>
      <point x="166" y="15"></point>
      <point x="166" y="42" type="curve" smooth="yes"></point>
      <point x="166" y="339"></point>
      <point x="373" y="878"></point>
    </contour>
  </outline>
</glyph>
<glyph name="cent" format="1">
  <advance width="846"></advance>
  <unicode hex="00A2"></unicode>
  <outline>
    <contour>
      <point x="338" y="1125" type="curve"></point>
      <point x="286" y="1049"></point>
      <point x="273" y="882"></point>
      <point x="273" y="790" type="curve" smooth="yes"></point>
      <point x="273" y="699"></point>
      <point x="277" y="444"></point>
      <point x="396" y="424" type="curve"></point>
      <point x="395" y="656"></point>
      <point x="383" y="897"></point>
    </contour>
    <contour>
      <point x="404" y="203" type="curve"></point>
      <point x="401" y="202" type="line"></point>
      <point x="401" y="239"></point>
      <point x="409" y="276"></point>
      <point x="409" y="313" type="curve"></point>
      <point x="177" y="402"></point>
      <point x="174" y="560"></point>
      <point x="174" y="777" type="curve" smooth="yes"></point>
      <point x="174" y="943"></point>
      <point x="179" y="1156"></point>
      <point x="337" y="1254" type="curve"></point>
      <point x="333" y="1292"></point>
      <point x="326" y="1330"></point>
      <point x="326" y="1368" type="curve" smooth="yes"></point>
      <point x="326" y="1403"></point>
      <point x="332" y="1456"></point>
      <point x="378" y="1456" type="curve" smooth="yes"></point>
      <point x="385" y="1456" type="line"></point>
      <point x="415" y="1436" type="line"></point>
      <point x="412" y="1414"></point>
      <point x="410" y="1393"></point>
      <point x="410" y="1371" type="curve" smooth="yes"></point>
      <point x="410" y="1332"></point>
      <point x="415" y="1293"></point>
      <point x="420" y="1254" type="curve"></point>
      <point x="479" y="1236"></point>
      <point x="597" y="1218"></point>
      <point x="604" y="1140" type="curve"></point>
      <point x="602" y="1140" type="line"></point>
      <point x="602" y="1135" type="line" smooth="yes"></point>
      <point x="602" y="1114"></point>
      <point x="584" y="1084"></point>
      <point x="560" y="1084" type="curve" smooth="yes"></point>
      <point x="528" y="1084"></point>
      <point x="503" y="1112"></point>
      <point x="492" y="1140" type="curve"></point>
      <point x="434" y="1169" type="line"></point>
      <point x="429" y="1169" type="line"></point>
      <point x="434" y="921"></point>
      <point x="490" y="676"></point>
      <point x="490" y="428" type="curve" smooth="yes"></point>
      <point x="490" y="420"></point>
      <point x="488" y="411"></point>
      <point x="488" y="403" type="curve" smooth="yes"></point>
      <point x="488" y="399"></point>
      <point x="489" y="395"></point>
      <point x="490" y="391" type="curve"></point>
      <point x="568" y="395"></point>
      <point x="603" y="452"></point>
      <point x="642" y="511" type="curve"></point>
      <point x="683" y="511"></point>
      <point x="701" y="492"></point>
      <point x="701" y="451" type="curve" smooth="yes"></point>
      <point x="701" y="373"></point>
      <point x="563" y="307"></point>
      <point x="497" y="301" type="curve"></point>
      <point x="493" y="275"></point>
      <point x="489" y="249"></point>
      <point x="489" y="222" type="curve" smooth="yes"></point>
      <point x="489" y="157"></point>
      <point x="503" y="93"></point>
      <point x="503" y="28" type="curve" smooth="yes"></point>
      <point x="503" y="2"></point>
      <point x="481" y="-20"></point>
      <point x="455" y="-20" type="curve" smooth="yes"></point>
      <point x="446" y="-20" type="line"></point>
      <point x="408" y="15" type="line"></point>
      <point x="411" y="32"></point>
      <point x="412" y="49"></point>
      <point x="412" y="65" type="curve" smooth="yes"></point>
      <point x="412" y="111"></point>
      <point x="404" y="157"></point>
    </contour>
  </outline>
</glyph>
<glyph name="sterling" format="1">
  <advance width="954"></advance>
  <unicode hex="00A3"></unicode>
  <outline>
    <contour>
      <point x="744" y="146" type="curve" smooth="yes"></point>
      <point x="775" y="146"></point>
      <point x="799" y="123"></point>
      <point x="799" y="96" type="curve" smooth="yes"></point>
      <point x="799" y="59"></point>
      <point x="750" y="27"></point>
      <point x="651" y="27" type="curve" smooth="yes"></point>
      <point x="542" y="27"></point>
      <point x="474" y="57"></point>
      <point x="370" y="68" type="curve"></point>
      <point x="370" y="71" type="line"></point>
      <point x="333" y="70"></point>
      <point x="221" y="21"></point>
      <point x="186" y="2" type="curve"></point>
      <point x="186" y="6" type="line"></point>
      <point x="161" y="8"></point>
      <point x="128" y="23"></point>
      <point x="128" y="53" type="curve" smooth="yes"></point>
      <point x="128" y="123"></point>
      <point x="215" y="125"></point>
      <point x="257" y="158" type="curve" smooth="yes"></point>
      <point x="304" y="194"></point>
      <point x="319" y="325"></point>
      <point x="319" y="382" type="curve" smooth="yes"></point>
      <point x="319" y="559"></point>
      <point x="253" y="725"></point>
      <point x="212" y="894" type="curve"></point>
      <point x="132" y="894"></point>
      <point x="118" y="906"></point>
      <point x="118" y="918" type="curve" smooth="yes"></point>
      <point x="118" y="924" type="line" smooth="yes"></point>
      <point x="118" y="943"></point>
      <point x="121" y="966"></point>
      <point x="195" y="966" type="curve"></point>
      <point x="192" y="1057"></point>
      <point x="170" y="1147"></point>
      <point x="170" y="1238" type="curve" smooth="yes"></point>
      <point x="170" y="1329"></point>
      <point x="189" y="1632"></point>
      <point x="355" y="1632" type="curve" smooth="yes"></point>
      <point x="380" y="1632" type="line" smooth="yes"></point>
      <point x="460" y="1632"></point>
      <point x="547" y="1474"></point>
      <point x="547" y="1403" type="curve" smooth="yes"></point>
      <point x="547" y="1380"></point>
      <point x="544" y="1359"></point>
      <point x="515" y="1359" type="curve" smooth="yes"></point>
      <point x="406" y="1359"></point>
      <point x="455" y="1535"></point>
      <point x="361" y="1535" type="curve" smooth="yes"></point>
      <point x="294" y="1535"></point>
      <point x="269" y="1340"></point>
      <point x="269" y="1270" type="curve" smooth="yes"></point>
      <point x="269" y="1243" type="line" smooth="yes"></point>
      <point x="269" y="1154"></point>
      <point x="270" y="1062"></point>
      <point x="288" y="976" type="curve"></point>
      <point x="357" y="976"></point>
      <point x="424" y="979"></point>
      <point x="493" y="979" type="curve" smooth="yes"></point>
      <point x="519" y="979"></point>
      <point x="545" y="957"></point>
      <point x="545" y="928" type="curve" smooth="yes"></point>
      <point x="545" y="909"></point>
      <point x="452" y="910"></point>
      <point x="309" y="900" type="curve"></point>
      <point x="340" y="728"></point>
      <point x="416" y="554"></point>
      <point x="416" y="378" type="curve" smooth="yes"></point>
      <point x="416" y="305"></point>
      <point x="390" y="238"></point>
      <point x="369" y="169" type="curve"></point>
      <point x="459" y="162"></point>
      <point x="544" y="125"></point>
      <point x="634" y="125" type="curve" smooth="yes"></point>
      <point x="673" y="125"></point>
      <point x="707" y="146"></point>
    </contour>
  </outline>
</glyph>
<glyph name="yen" format="1">
  <advance width="990"></advance>
  <unicode hex="00A5"></unicode>
  <outline>
    <contour>
      <point x="53" y="1764" type="line"></point>
      <point x="56" y="1759" type="line"></point>
      <point x="72" y="1766"></point>
      <point x="89" y="1774"></point>
      <point x="106" y="1774" type="curve" smooth="yes"></point>
      <point x="205" y="1774"></point>
      <point x="450" y="1293"></point>
      <point x="507" y="1207" type="curve"></point>
      <point x="544" y="1302"></point>
      <point x="663" y="1832"></point>
      <point x="760" y="1832" type="curve" smooth="yes"></point>
      <point x="790" y="1832"></point>
      <point x="818" y="1809"></point>
      <point x="818" y="1778" type="curve"></point>
      <point x="816" y="1768" type="line"></point>
      <point x="755" y="1589"></point>
      <point x="691" y="1422"></point>
      <point x="644" y="1238" type="curve" smooth="yes"></point>
      <point x="628" y="1176"></point>
      <point x="595" y="1121"></point>
      <point x="580" y="1059" type="curve"></point>
      <point x="605" y="1056" type="line"></point>
      <point x="633" y="1056"></point>
      <point x="699" y="1066"></point>
      <point x="760" y="1066" type="curve" smooth="yes"></point>
      <point x="827" y="1066"></point>
      <point x="887" y="1054"></point>
      <point x="887" y="1005" type="curve" smooth="yes"></point>
      <point x="887" y="955"></point>
      <point x="815" y="948"></point>
      <point x="774" y="948" type="curve" smooth="yes"></point>
      <point x="765" y="948" type="line" smooth="yes"></point>
      <point x="574" y="950" type="line"></point>
      <point x="574" y="887" type="line"></point>
      <point x="599" y="887"></point>
      <point x="660" y="895"></point>
      <point x="722" y="895" type="curve" smooth="yes"></point>
      <point x="802" y="895"></point>
      <point x="882" y="881"></point>
      <point x="882" y="820" type="curve" smooth="yes"></point>
      <point x="882" y="789"></point>
      <point x="851" y="766"></point>
      <point x="822" y="766" type="curve" smooth="yes"></point>
      <point x="714" y="766" type="line"></point>
      <point x="735" y="776" type="line"></point>
      <point x="569" y="776" type="line"></point>
      <point x="568" y="564"></point>
      <point x="538" y="354"></point>
      <point x="538" y="142" type="curve" smooth="yes"></point>
      <point x="538" y="128"></point>
      <point x="539" y="111"></point>
      <point x="539" y="94" type="curve" smooth="yes"></point>
      <point x="539" y="45"></point>
      <point x="531" y="-8"></point>
      <point x="470" y="-8" type="curve" smooth="yes"></point>
      <point x="442" y="-8"></point>
      <point x="405" y="6"></point>
      <point x="405" y="40" type="curve" smooth="yes"></point>
      <point x="405" y="45" type="line"></point>
      <point x="432" y="112"></point>
      <point x="448" y="663"></point>
      <point x="448" y="773" type="curve"></point>
      <point x="441" y="773" type="line" smooth="yes"></point>
      <point x="378" y="773"></point>
      <point x="314" y="762"></point>
      <point x="251" y="762" type="curve" smooth="yes"></point>
      <point x="237" y="762" type="line" smooth="yes"></point>
      <point x="206" y="763" type="line"></point>
      <point x="182" y="776"></point>
      <point x="163" y="798"></point>
      <point x="152" y="823" type="curve"></point>
      <point x="168" y="875" type="line"></point>
      <point x="264" y="875"></point>
      <point x="361" y="878"></point>
      <point x="457" y="883" type="curve"></point>
      <point x="459" y="907"></point>
      <point x="459" y="930"></point>
      <point x="459" y="954" type="curve"></point>
      <point x="458" y="958" type="line"></point>
      <point x="431" y="957"></point>
      <point x="366" y="948"></point>
      <point x="305" y="948" type="curve" smooth="yes"></point>
      <point x="236" y="948"></point>
      <point x="173" y="960"></point>
      <point x="173" y="1010" type="curve" smooth="yes"></point>
      <point x="173" y="1017" type="line"></point>
      <point x="198" y="1056" type="line"></point>
      <point x="251" y="1056"></point>
      <point x="303" y="1052"></point>
      <point x="356" y="1052" type="curve" smooth="yes"></point>
      <point x="390" y="1052"></point>
      <point x="424" y="1054"></point>
      <point x="458" y="1059" type="curve"></point>
      <point x="458" y="1071" type="line"></point>
      <point x="278" y="1251"></point>
      <point x="246" y="1535"></point>
      <point x="53" y="1705" type="curve"></point>
    </contour>
  </outline>
</glyph>
<glyph name="brokenbar" format="1">
  <advance width="576"></advance>
  <unicode hex="00A6"></unicode>
  <outline>
    <contour>
      <point x="230" y="1020" type="curve" smooth="yes"></point>
      <point x="230" y="1183"></point>
      <point x="222" y="1348"></point>
      <point x="222" y="1510" type="curve" smooth="yes"></point>
      <point x="222" y="1556"></point>
      <point x="245" y="1584"></point>
      <point x="293" y="1584" type="curve" smooth="yes"></point>
      <point x="331" y="1584"></point>
      <point x="338" y="1481"></point>
      <point x="338" y="1393" type="curve" smooth="yes"></point>
      <point x="338" y="1346"></point>
      <point x="336" y="1304"></point>
      <point x="336" y="1285" type="curve" smooth="yes"></point>
      <point x="333" y="877" type="line" smooth="yes"></point>
      <point x="333" y="849"></point>
      <point x="309" y="826"></point>
      <point x="281" y="826" type="curve" smooth="yes"></point>
      <point x="229" y="826"></point>
      <point x="230" y="988"></point>
    </contour>
    <contour>
      <point x="275" y="695" type="curve" smooth="yes"></point>
      <point x="321" y="695"></point>
      <point x="336" y="662"></point>
      <point x="336" y="621" type="curve" smooth="yes"></point>
      <point x="338" y="-16" type="line" smooth="yes"></point>
      <point x="338" y="-50"></point>
      <point x="326" y="-80"></point>
      <point x="287" y="-80" type="curve" smooth="yes"></point>
      <point x="259" y="-80"></point>
      <point x="235" y="-57"></point>
      <point x="235" y="-29" type="curve" smooth="yes"></point>
      <point x="232" y="339" type="line"></point>
      <point x="233" y="644" type="line" smooth="yes"></point>
      <point x="233" y="668"></point>
      <point x="249" y="695"></point>
    </contour>
  </outline>
</glyph>
<glyph name="section" format="1">
  <advance width="720"></advance>
  <unicode hex="00A7"></unicode>
  <outline>
    <contour>
      <point x="434" y="649" type="curve" smooth="yes"></point>
      <point x="434" y="754"></point>
      <point x="372" y="840"></point>
      <point x="318" y="925" type="curve"></point>
      <point x="290" y="890"></point>
      <point x="274" y="840"></point>
      <point x="274" y="795" type="curve" smooth="yes"></point>
      <point x="274" y="701"></point>
      <point x="331" y="622"></point>
      <point x="385" y="549" type="curve"></point>
      <point x="413" y="573"></point>
      <point x="434" y="612"></point>
    </contour>
    <contour>
      <point x="534" y="634" type="curve" smooth="yes"></point>
      <point x="534" y="566"></point>
      <point x="502" y="502"></point>
      <point x="445" y="465" type="curve"></point>
      <point x="487" y="399"></point>
      <point x="519" y="326"></point>
      <point x="519" y="246" type="curve" smooth="yes"></point>
      <point x="519" y="139"></point>
      <point x="457" y="1"></point>
      <point x="334" y="1" type="curve" smooth="yes"></point>
      <point x="290" y="1"></point>
      <point x="233" y="33"></point>
      <point x="233" y="82" type="curve" smooth="yes"></point>
      <point x="233" y="109"></point>
      <point x="260" y="121"></point>
      <point x="283" y="121" type="curve" smooth="yes"></point>
      <point x="297" y="121"></point>
      <point x="314" y="116"></point>
      <point x="326" y="109" type="curve"></point>
      <point x="388" y="110"></point>
      <point x="419" y="206"></point>
      <point x="419" y="257" type="curve" smooth="yes"></point>
      <point x="419" y="457"></point>
      <point x="174" y="550"></point>
      <point x="174" y="820" type="curve" smooth="yes"></point>
      <point x="174" y="895"></point>
      <point x="204" y="972"></point>
      <point x="265" y="1018" type="curve"></point>
      <point x="226" y="1099"></point>
      <point x="207" y="1186"></point>
      <point x="207" y="1275" type="curve" smooth="yes"></point>
      <point x="207" y="1385"></point>
      <point x="262" y="1443"></point>
      <point x="374" y="1443" type="curve" smooth="yes"></point>
      <point x="401" y="1443"></point>
      <point x="475" y="1430"></point>
      <point x="475" y="1392" type="curve" smooth="yes"></point>
      <point x="475" y="1308"></point>
      <point x="289" y="1405"></point>
      <point x="289" y="1277" type="curve" smooth="yes"></point>
      <point x="289" y="1046"></point>
      <point x="534" y="943"></point>
    </contour>
  </outline>
</glyph>
<glyph name="dieresis" format="1">
  <advance width="631"/>
  <unicode hex="00A8"/>
  <outline>
    <contour>
      <point x="164" y="954" type="curve" smooth="yes"/>
      <point x="125" y="954"/>
      <point x="105" y="984"/>
      <point x="105" y="1021" type="curve" smooth="yes"/>
      <point x="105" y="1061"/>
      <point x="134" y="1095"/>
      <point x="175" y="1095" type="curve" smooth="yes"/>
      <point x="213" y="1095"/>
      <point x="246" y="1065"/>
      <point x="246" y="1026" type="curve" smooth="yes"/>
      <point x="246" y="984"/>
      <point x="203" y="954"/>
    </contour>
    <contour>
      <point x="385" y="1023" type="curve" smooth="yes"/>
      <point x="385" y="1062"/>
      <point x="419" y="1098"/>
      <point x="458" y="1098" type="curve" smooth="yes"/>
      <point x="495" y="1098"/>
      <point x="526" y="1061"/>
      <point x="526" y="1025" type="curve" smooth="yes"/>
      <point x="526" y="983"/>
      <point x="489" y="954"/>
      <point x="449" y="954" type="curve" smooth="yes"/>
      <point x="413" y="954"/>
      <point x="385" y="988"/>
    </contour>
  </outline>
</glyph>
<glyph name="uni00AD" format="1">
  <advance width="646"/>
  <unicode hex="00AD"/>
  <outline>
    <contour>
      <point x="544" y="739" type="curve" smooth="yes"/>
      <point x="544" y="666"/>
      <point x="227" y="656"/>
      <point x="169" y="656" type="curve" smooth="yes"/>
      <point x="136" y="656"/>
      <point x="102" y="680"/>
      <point x="102" y="715" type="curve" smooth="yes"/>
      <point x="102" y="787"/>
      <point x="419" y="798"/>
      <point x="476" y="798" type="curve" smooth="yes"/>
      <point x="509" y="798"/>
      <point x="544" y="775"/>
    </contour>
  </outline>
</glyph>
<glyph name="registered" format="1">
  <advance width="1350"></advance>
  <unicode hex="00AE"></unicode>
  <outline>
    <contour>
      <point x="692" y="-190" type="curve" smooth="yes"></point>
      <point x="191" y="-190"></point>
      <point x="158" y="358"></point>
      <point x="158" y="757" type="curve" smooth="yes"></point>
      <point x="158" y="917" type="line" smooth="yes"></point>
      <point x="158" y="1292"></point>
      <point x="192" y="1938"></point>
      <point x="688" y="1938" type="curve" smooth="yes"></point>
      <point x="813" y="1938"></point>
      <point x="927" y="1851"></point>
      <point x="998" y="1755" type="curve"></point>
      <point x="1122" y="1679"></point>
      <point x="1170" y="968"></point>
      <point x="1170" y="807" type="curve" smooth="yes"></point>
      <point x="1170" y="470"></point>
      <point x="1169" y="-190"></point>
    </contour>
    <contour>
      <point x="930" y="1655" type="curve" smooth="yes"></point>
      <point x="900" y="1716"></point>
      <point x="772" y="1832"></point>
      <point x="703" y="1832" type="curve" smooth="yes"></point>
      <point x="301" y="1832"></point>
      <point x="278" y="1241"></point>
      <point x="278" y="954" type="curve" smooth="yes"></point>
      <point x="278" y="747"></point>
      <point x="280" y="179"></point>
      <point x="418" y="27" type="curve" smooth="yes"></point>
      <point x="454" y="-13"></point>
      <point x="500" y="-31"></point>
      <point x="541" y="-64" type="curve"></point>
      <point x="601" y="-76" type="line"></point>
      <point x="620" y="-84" type="line"></point>
      <point x="1037" y="-79"></point>
      <point x="1056" y="396"></point>
      <point x="1056" y="706" type="curve" smooth="yes"></point>
      <point x="1056" y="759"></point>
      <point x="1057" y="812"></point>
      <point x="1057" y="866" type="curve" smooth="yes"></point>
      <point x="1057" y="1136"></point>
      <point x="1047" y="1416"></point>
    </contour>
    <contour>
      <point x="951" y="199" type="curve" smooth="yes"></point>
      <point x="951" y="175"></point>
      <point x="917" y="143"></point>
      <point x="894" y="143" type="curve" smooth="yes"></point>
      <point x="772" y="143"></point>
      <point x="670" y="797"></point>
      <point x="624" y="914" type="curve"></point>
      <point x="569" y="891" type="line"></point>
      <point x="567" y="859"></point>
      <point x="564" y="828"></point>
      <point x="564" y="796" type="curve" smooth="yes"></point>
      <point x="564" y="600"></point>
      <point x="609" y="406"></point>
      <point x="609" y="210" type="curve" smooth="yes"></point>
      <point x="609" y="174"></point>
      <point x="593" y="143"></point>
      <point x="553" y="143" type="curve" smooth="yes"></point>
      <point x="517" y="143"></point>
      <point x="480" y="169"></point>
      <point x="480" y="208" type="curve" smooth="yes"></point>
      <point x="480" y="224"></point>
      <point x="481" y="240"></point>
      <point x="481" y="256" type="curve" smooth="yes"></point>
      <point x="481" y="327"></point>
      <point x="479" y="399"></point>
      <point x="472" y="470" type="curve" smooth="yes"></point>
      <point x="465" y="539"></point>
      <point x="446" y="606"></point>
      <point x="446" y="676" type="curve" smooth="yes"></point>
      <point x="446" y="1075" type="line" smooth="yes"></point>
      <point x="446" y="1202"></point>
      <point x="421" y="1327"></point>
      <point x="421" y="1454" type="curve" smooth="yes"></point>
      <point x="421" y="1603"></point>
      <point x="503" y="1635"></point>
      <point x="637" y="1635" type="curve" smooth="yes"></point>
      <point x="844" y="1635"></point>
      <point x="873" y="1433"></point>
      <point x="873" y="1270" type="curve" smooth="yes"></point>
      <point x="873" y="1023"></point>
      <point x="743" y="1007"></point>
      <point x="732" y="969" type="curve"></point>
      <point x="735" y="888"></point>
      <point x="880" y="425"></point>
      <point x="914" y="314" type="curve"></point>
      <point x="921" y="314" type="line"></point>
      <point x="921" y="271"></point>
      <point x="951" y="239"></point>
    </contour>
    <contour>
      <point x="643" y="1525" type="curve" smooth="yes"></point>
      <point x="553" y="1525"></point>
      <point x="535" y="1475"></point>
      <point x="535" y="1407" type="curve" smooth="yes"></point>
      <point x="535" y="1364"></point>
      <point x="543" y="1312"></point>
      <point x="543" y="1263" type="curve" smooth="yes"></point>
      <point x="543" y="1175"></point>
      <point x="544" y="1086"></point>
      <point x="566" y="1000" type="curve"></point>
      <point x="687" y="1049"></point>
      <point x="751" y="1142"></point>
      <point x="751" y="1272" type="curve" smooth="yes"></point>
      <point x="751" y="1280" type="line" smooth="yes"></point>
      <point x="751" y="1359"></point>
      <point x="749" y="1525"></point>
    </contour>
  </outline>
</glyph>
<glyph name="macron" format="1">
  <advance width="792"></advance>
  <unicode hex="00AF"></unicode>
  <outline>
    <contour>
      <point x="616" y="749" type="curve" smooth="yes"></point>
      <point x="616" y="712"></point>
      <point x="580" y="704"></point>
      <point x="550" y="704" type="curve" smooth="yes"></point>
      <point x="530" y="704"></point>
      <point x="469" y="700"></point>
      <point x="402" y="700" type="curve" smooth="yes"></point>
      <point x="296" y="700"></point>
      <point x="174" y="709"></point>
      <point x="174" y="756" type="curve" smooth="yes"></point>
      <point x="174" y="797"></point>
      <point x="235" y="800"></point>
      <point x="264" y="800" type="curve" smooth="yes"></point>
      <point x="284" y="800"></point>
      <point x="343" y="804"></point>
      <point x="408" y="804" type="curve" smooth="yes"></point>
      <point x="506" y="804"></point>
      <point x="616" y="795"></point>
    </contour>
  </outline>
</glyph>
<glyph name="uni00B5" format="1">
  <advance width="882"></advance>
  <unicode hex="00B5"></unicode>
  <unicode hex="03bc"></unicode>
  <outline>
    <contour>
      <point x="648" y="1389" type="curve" smooth="yes"></point>
      <point x="708" y="1389"></point>
      <point x="711" y="1336"></point>
      <point x="711" y="1290" type="curve" smooth="yes"></point>
      <point x="711" y="1221"></point>
      <point x="697" y="1151"></point>
      <point x="697" y="1084" type="curve" smooth="yes"></point>
      <point x="697" y="1027"></point>
      <point x="688" y="970"></point>
      <point x="688" y="913" type="curve" smooth="yes"></point>
      <point x="688" y="901"></point>
      <point x="690" y="890"></point>
      <point x="690" y="878" type="curve" smooth="yes"></point>
      <point x="690" y="874"></point>
      <point x="690" y="869"></point>
      <point x="689" y="865" type="curve" smooth="yes"></point>
      <point x="647" y="665"></point>
      <point x="721" y="-31"></point>
      <point x="426" y="-31" type="curve" smooth="yes"></point>
      <point x="378" y="-31"></point>
      <point x="340" y="-15"></point>
      <point x="310" y="11" type="curve"></point>
      <point x="312" y="-48"></point>
      <point x="314" y="-107"></point>
      <point x="314" y="-166" type="curve" smooth="yes"></point>
      <point x="314" y="-211"></point>
      <point x="300" y="-248"></point>
      <point x="249" y="-248" type="curve" smooth="yes"></point>
      <point x="221" y="-248"></point>
      <point x="203" y="-230"></point>
      <point x="203" y="-202" type="curve" smooth="yes"></point>
      <point x="203" y="99" type="line" smooth="yes"></point>
      <point x="203" y="215"></point>
      <point x="196" y="356"></point>
      <point x="196" y="475" type="curve" smooth="yes"></point>
      <point x="196" y="484" type="line" smooth="yes"></point>
      <point x="196" y="697"></point>
      <point x="207" y="824"></point>
      <point x="207" y="1013" type="curve" smooth="yes"></point>
      <point x="207" y="1114"></point>
      <point x="202" y="1213"></point>
      <point x="182" y="1306" type="curve"></point>
      <point x="204" y="1355" type="line"></point>
      <point x="274" y="1355"></point>
      <point x="288" y="1289"></point>
      <point x="288" y="1232" type="curve" smooth="yes"></point>
      <point x="288" y="675" type="line" smooth="yes"></point>
      <point x="288" y="530"></point>
      <point x="317" y="386"></point>
      <point x="317" y="241" type="curve" smooth="yes"></point>
      <point x="317" y="152"></point>
      <point x="332" y="31"></point>
      <point x="447" y="31" type="curve" smooth="yes"></point>
      <point x="539" y="31"></point>
      <point x="567" y="480"></point>
      <point x="567" y="559" type="curve"></point>
      <point x="581" y="808"></point>
      <point x="593" y="1057"></point>
      <point x="593" y="1307" type="curve" smooth="yes"></point>
      <point x="593" y="1319"></point>
      <point x="592" y="1330"></point>
      <point x="592" y="1341" type="curve" smooth="yes"></point>
      <point x="592" y="1369"></point>
      <point x="599" y="1389"></point>
    </contour>
  </outline>
</glyph>
<glyph name="paragraph" format="1">
  <advance width="1080"></advance>
  <unicode hex="00B6"></unicode>
  <outline>
    <contour>
      <point x="239" y="1454" type="curve"></point>
      <point x="238" y="1455" type="line"></point>
      <point x="238" y="1224"></point>
      <point x="386" y="1196"></point>
      <point x="581" y="1196" type="curve" smooth="yes"></point>
      <point x="585" y="1196"></point>
      <point x="592" y="1199"></point>
      <point x="596" y="1200" type="curve"></point>
      <point x="596" y="1366"></point>
      <point x="576" y="1531"></point>
      <point x="576" y="1697" type="curve"></point>
      <point x="578" y="1740" type="line"></point>
      <point x="551" y="1748"></point>
      <point x="524" y="1748"></point>
      <point x="496" y="1748" type="curve" smooth="yes"></point>
      <point x="349" y="1748"></point>
      <point x="239" y="1591"></point>
    </contour>
    <contour>
      <point x="870" y="1739" type="curve"></point>
      <point x="871" y="1540"></point>
      <point x="884" y="1341"></point>
      <point x="884" y="1142" type="curve" smooth="yes"></point>
      <point x="884" y="850"></point>
      <point x="872" y="557"></point>
      <point x="872" y="265" type="curve" smooth="yes"></point>
      <point x="872" y="188"></point>
      <point x="884" y="113"></point>
      <point x="884" y="36" type="curve" smooth="yes"></point>
      <point x="884" y="4"></point>
      <point x="857" y="-20"></point>
      <point x="826" y="-20" type="curve" smooth="yes"></point>
      <point x="759" y="-20"></point>
      <point x="751" y="52"></point>
      <point x="751" y="103" type="curve" smooth="yes"></point>
      <point x="751" y="461"></point>
      <point x="770" y="819"></point>
      <point x="770" y="1177" type="curve" smooth="yes"></point>
      <point x="770" y="1326"></point>
      <point x="755" y="1474"></point>
      <point x="755" y="1623" type="curve" smooth="yes"></point>
      <point x="755" y="1642"></point>
      <point x="758" y="1666"></point>
      <point x="758" y="1689" type="curve" smooth="yes"></point>
      <point x="758" y="1731"></point>
      <point x="748" y="1769"></point>
      <point x="696" y="1769" type="curve" smooth="yes"></point>
      <point x="689" y="1769"></point>
      <point x="687" y="1700"></point>
      <point x="687" y="1689" type="curve" smooth="yes"></point>
      <point x="687" y="1452"></point>
      <point x="714" y="1217"></point>
      <point x="714" y="980" type="curve" smooth="yes"></point>
      <point x="714" y="674"></point>
      <point x="676" y="370"></point>
      <point x="676" y="64" type="curve" smooth="yes"></point>
      <point x="676" y="21"></point>
      <point x="666" y="-8"></point>
      <point x="617" y="-8" type="curve" smooth="yes"></point>
      <point x="581" y="-8"></point>
      <point x="555" y="21"></point>
      <point x="555" y="56" type="curve" smooth="yes"></point>
      <point x="555" y="359"></point>
      <point x="598" y="661"></point>
      <point x="598" y="964" type="curve" smooth="yes"></point>
      <point x="598" y="1009"></point>
      <point x="595" y="1053"></point>
      <point x="594" y="1098" type="curve"></point>
      <point x="423" y="1098"></point>
      <point x="185" y="1118"></point>
      <point x="139" y="1321" type="curve" smooth="yes"></point>
      <point x="134" y="1342"></point>
      <point x="135" y="1364"></point>
      <point x="126" y="1384" type="curve"></point>
      <point x="126" y="1747"></point>
      <point x="291" y="1823"></point>
      <point x="621" y="1854" type="curve"></point>
      <point x="638" y="1871"></point>
      <point x="660" y="1876"></point>
      <point x="683" y="1876" type="curve" smooth="yes"></point>
      <point x="710" y="1876"></point>
      <point x="737" y="1864"></point>
      <point x="763" y="1859" type="curve"></point>
      <point x="762" y="1858" type="line"></point>
      <point x="818" y="1865" type="line"></point>
      <point x="827" y="1854" type="line"></point>
      <point x="862" y="1852"></point>
      <point x="950" y="1838"></point>
      <point x="950" y="1790" type="curve" smooth="yes"></point>
      <point x="950" y="1759"></point>
      <point x="922" y="1738"></point>
      <point x="893" y="1738" type="curve" smooth="yes"></point>
      <point x="885" y="1738"></point>
      <point x="878" y="1739"></point>
    </contour>
  </outline>
</glyph>
<glyph name="periodcentered" format="1">
  <advance width="612"></advance>
  <unicode hex="00B7"></unicode>
  <outline>
    <contour>
      <point x="222" y="706" type="curve" smooth="yes"></point>
      <point x="222" y="747"></point>
      <point x="258" y="785"></point>
      <point x="299" y="785" type="curve" smooth="yes"></point>
      <point x="338" y="785"></point>
      <point x="372" y="746"></point>
      <point x="372" y="708" type="curve" smooth="yes"></point>
      <point x="372" y="661"></point>
      <point x="336" y="633"></point>
      <point x="291" y="633" type="curve" smooth="yes"></point>
      <point x="253" y="633"></point>
      <point x="222" y="669"></point>
    </contour>
  </outline>
</glyph>
<glyph name="cedilla" format="1">
  <advance width="404"/>
  <unicode hex="00b8"/>
  <outline>
    <contour>
      <point x="185" y="-403" type="curve" smooth="yes"/>
      <point x="156" y="-403"/>
      <point x="134" y="-381"/>
      <point x="104" y="-381" type="curve" smooth="yes"/>
      <point x="80" y="-381"/>
      <point x="58" y="-400"/>
      <point x="58" y="-425" type="curve" smooth="yes"/>
      <point x="58" y="-467"/>
      <point x="129" y="-484"/>
      <point x="180" y="-484" type="curve" smooth="yes"/>
      <point x="265" y="-484"/>
      <point x="349" y="-397"/>
      <point x="349" y="-318" type="curve" smooth="yes"/>
      <point x="349" y="-216"/>
      <point x="297" y="-112"/>
      <point x="140" y="-91" type="curve" smooth="no"/>
      <point x="142" y="-54"/>
      <point x="146" y="-18"/>
      <point x="153" y="18" type="curve" smooth="no"/>
      <point x="97" y="18" type="line" smooth="no"/>
      <point x="91" y="-2"/>
      <point x="91" y="-20"/>
      <point x="91" y="-41" type="curve" smooth="yes"/>
      <point x="91" y="-99"/>
      <point x="82" y="-151"/>
      <point x="82" y="-207" type="curve" smooth="no"/>
      <point x="85" y="-218"/>
      <point x="128" y="-219"/>
      <point x="164" y="-219" type="curve" smooth="yes"/>
      <point x="228" y="-219"/>
      <point x="262" y="-264"/>
      <point x="262" y="-304" type="curve" smooth="yes"/>
      <point x="262" y="-356"/>
      <point x="237" y="-403"/>
    </contour>
  </outline>
</glyph>
<glyph name="ordmasculine" format="1">
  <advance width="900"></advance>
  <unicode hex="00BA"></unicode>
  <outline>
    <contour>
      <point x="712" y="908" type="curve" smooth="yes"></point>
      <point x="712" y="893" type="line" smooth="yes"></point>
      <point x="712" y="816"></point>
      <point x="716" y="738"></point>
      <point x="716" y="661" type="curve" smooth="yes"></point>
      <point x="716" y="539"></point>
      <point x="701" y="269"></point>
      <point x="443" y="269" type="curve" smooth="yes"></point>
      <point x="210" y="269"></point>
      <point x="179" y="584"></point>
      <point x="179" y="736" type="curve" smooth="yes"></point>
      <point x="179" y="765"></point>
      <point x="177" y="817"></point>
      <point x="177" y="880" type="curve" smooth="yes"></point>
      <point x="177" y="1078"></point>
      <point x="194" y="1378"></point>
      <point x="332" y="1378" type="curve" smooth="yes"></point>
      <point x="618" y="1378"></point>
      <point x="712" y="1164"></point>
    </contour>
    <contour>
      <point x="410" y="1269" type="curve" smooth="yes"></point>
      <point x="312" y="1269"></point>
      <point x="298" y="1157"></point>
      <point x="298" y="1057" type="curve" smooth="yes"></point>
      <point x="298" y="1042"></point>
      <point x="300" y="1027"></point>
      <point x="300" y="1016" type="curve" smooth="yes"></point>
      <point x="300" y="953"></point>
      <point x="290" y="890"></point>
      <point x="290" y="827" type="curve" smooth="yes"></point>
      <point x="290" y="758"></point>
      <point x="301" y="384"></point>
      <point x="435" y="384" type="curve" smooth="yes"></point>
      <point x="592" y="384"></point>
      <point x="606" y="612"></point>
      <point x="606" y="674" type="curve" smooth="yes"></point>
      <point x="606" y="713"></point>
      <point x="607" y="759"></point>
      <point x="607" y="808" type="curve" smooth="yes"></point>
      <point x="607" y="1015"></point>
      <point x="590" y="1269"></point>
    </contour>
    <contour>
      <point x="698" y="160" type="line" smooth="yes"></point>
      <point x="733" y="160"></point>
      <point x="748" y="144"></point>
      <point x="748" y="124" type="curve" smooth="yes"></point>
      <point x="748" y="103"></point>
      <point x="726" y="78"></point>
      <point x="692" y="78" type="curve" smooth="yes"></point>
      <point x="662" y="78"></point>
      <point x="631" y="76"></point>
      <point x="603" y="76" type="curve" smooth="yes"></point>
      <point x="476" y="76"></point>
      <point x="348" y="66"></point>
      <point x="221" y="66" type="curve" smooth="yes"></point>
      <point x="177" y="66"></point>
      <point x="142" y="89"></point>
      <point x="142" y="110" type="curve" smooth="yes"></point>
      <point x="142" y="138"></point>
      <point x="164" y="160"></point>
      <point x="192" y="160" type="curve" smooth="yes"></point>
    </contour>
  </outline>
</glyph>
<glyph name="guillemotright" format="1">
  <advance width="954"></advance>
  <unicode hex="00BB"></unicode>
  <outline>
    <contour>
      <point x="198" y="-19" type="line" smooth="yes"></point>
      <point x="194" y="-19" type="line" smooth="yes"></point>
      <point x="181" y="-19"></point>
      <point x="169" y="-23"></point>
      <point x="156" y="-23" type="curve" smooth="yes"></point>
      <point x="119" y="-23"></point>
      <point x="103" y="19"></point>
      <point x="102" y="49" type="curve"></point>
      <point x="127" y="69" type="line"></point>
      <point x="163" y="136"></point>
      <point x="437" y="680"></point>
      <point x="437" y="702" type="curve" smooth="yes"></point>
      <point x="437" y="908"></point>
      <point x="182" y="1202"></point>
      <point x="180" y="1411" type="curve"></point>
      <point x="225" y="1446" type="line"></point>
      <point x="235" y="1444" type="line"></point>
      <point x="309" y="1410"></point>
      <point x="311" y="1324"></point>
      <point x="331" y="1255" type="curve" smooth="yes"></point>
      <point x="369" y="1123"></point>
      <point x="552" y="803"></point>
      <point x="555" y="698" type="curve"></point>
    </contour>
    <contour>
      <point x="481" y="1490" type="curve" smooth="yes"></point>
      <point x="485" y="1490"></point>
      <point x="492" y="1487"></point>
      <point x="496" y="1486" type="curve"></point>
      <point x="499" y="1486" type="line"></point>
      <point x="499" y="1484" type="line"></point>
      <point x="500" y="1485" type="line"></point>
      <point x="528" y="1457"></point>
      <point x="557" y="1402"></point>
      <point x="562" y="1363" type="curve"></point>
      <point x="600" y="1264"></point>
      <point x="822" y="751"></point>
      <point x="822" y="700" type="curve" smooth="yes"></point>
      <point x="822" y="610"></point>
      <point x="463" y="-56"></point>
      <point x="419" y="-56" type="curve" smooth="yes"></point>
      <point x="393" y="-56"></point>
      <point x="354" y="-43"></point>
      <point x="354" y="-10" type="curve" smooth="yes"></point>
      <point x="354" y="68"></point>
      <point x="678" y="528"></point>
      <point x="712" y="689" type="curve"></point>
      <point x="597" y="928"></point>
      <point x="565" y="1211"></point>
      <point x="416" y="1433" type="curve"></point>
      <point x="419" y="1467"></point>
      <point x="447" y="1490"></point>
    </contour>
  </outline>
</glyph>
<glyph name="AE" format="1">
  <advance width="1026"></advance>
  <unicode hex="00C6"></unicode>
  <outline>
    <contour>
      <point x="527" y="706" type="curve"></point>
      <point x="529" y="855"></point>
      <point x="535" y="1004"></point>
      <point x="535" y="1153" type="curve" smooth="yes"></point>
      <point x="535" y="1196"></point>
      <point x="535" y="1240"></point>
      <point x="533" y="1283" type="curve"></point>
      <point x="474" y="1087"></point>
      <point x="416" y="889"></point>
      <point x="374" y="688" type="curve"></point>
      <point x="425" y="691"></point>
      <point x="477" y="695"></point>
    </contour>
    <contour>
      <point x="522" y="2" type="line"></point>
      <point x="524" y="3" type="line"></point>
      <point x="532" y="86"></point>
      <point x="541" y="169"></point>
      <point x="541" y="253" type="curve" smooth="yes"></point>
      <point x="541" y="380"></point>
      <point x="531" y="506"></point>
      <point x="531" y="633" type="curve"></point>
      <point x="472" y="628"></point>
      <point x="411" y="630"></point>
      <point x="354" y="611" type="curve"></point>
      <point x="253" y="226" type="line" smooth="yes"></point>
      <point x="240" y="178"></point>
      <point x="225" y="1"></point>
      <point x="158" y="1" type="curve" smooth="yes"></point>
      <point x="135" y="1"></point>
      <point x="118" y="27"></point>
      <point x="118" y="48" type="curve" smooth="yes"></point>
      <point x="118" y="288"></point>
      <point x="384" y="1103"></point>
      <point x="470" y="1380" type="curve" smooth="yes"></point>
      <point x="487" y="1437"></point>
      <point x="509" y="1544"></point>
      <point x="586" y="1544" type="curve" smooth="yes"></point>
      <point x="639" y="1544"></point>
      <point x="691" y="1554"></point>
      <point x="744" y="1554" type="curve" smooth="yes"></point>
      <point x="781" y="1554"></point>
      <point x="831" y="1546"></point>
      <point x="831" y="1498" type="curve" smooth="yes"></point>
      <point x="831" y="1492" type="line"></point>
      <point x="810" y="1450" type="line"></point>
      <point x="745" y="1450"></point>
      <point x="680" y="1447"></point>
      <point x="616" y="1440" type="curve"></point>
      <point x="618" y="1349"></point>
      <point x="630" y="1258"></point>
      <point x="630" y="1166" type="curve" smooth="yes"></point>
      <point x="630" y="1016"></point>
      <point x="624" y="866"></point>
      <point x="624" y="716" type="curve"></point>
      <point x="674" y="720"></point>
      <point x="722" y="735"></point>
      <point x="772" y="735" type="curve" smooth="yes"></point>
      <point x="782" y="735" type="line"></point>
      <point x="824" y="687" type="line"></point>
      <point x="824" y="629"></point>
      <point x="757" y="621"></point>
      <point x="711" y="621" type="curve" smooth="yes"></point>
      <point x="702" y="621" type="line" smooth="yes"></point>
      <point x="623" y="622" type="line"></point>
      <point x="624" y="442"></point>
      <point x="629" y="262"></point>
      <point x="629" y="82" type="curve"></point>
      <point x="705" y="83"></point>
      <point x="780" y="103"></point>
      <point x="856" y="103" type="curve" smooth="yes"></point>
      <point x="885" y="103"></point>
      <point x="924" y="87"></point>
      <point x="924" y="53" type="curve" smooth="yes"></point>
      <point x="924" y="-8"></point>
      <point x="760" y="-12"></point>
      <point x="680" y="-12" type="curve" smooth="yes"></point>
      <point x="648" y="-12" type="line" smooth="yes"></point>
      <point x="618" y="-12"></point>
      <point x="596" y="-38"></point>
      <point x="567" y="-43" type="curve"></point>
    </contour>
  </outline>
</glyph>
<glyph name="multiply" format="1">
  <advance width="828"></advance>
  <unicode hex="00D7"></unicode>
  <outline>
    <contour>
      <point x="549" y="412" type="line"></point>
      <point x="526" y="434"></point>
      <point x="418" y="557"></point>
      <point x="403" y="562" type="curve"></point>
      <point x="377" y="560"></point>
      <point x="317" y="430"></point>
      <point x="251" y="430" type="curve" smooth="yes"></point>
      <point x="221" y="430"></point>
      <point x="189" y="460"></point>
      <point x="189" y="490" type="curve" smooth="yes"></point>
      <point x="189" y="528"></point>
      <point x="297" y="601"></point>
      <point x="323" y="638" type="curve"></point>
      <point x="277" y="681"></point>
      <point x="158" y="755"></point>
      <point x="158" y="823" type="curve" smooth="yes"></point>
      <point x="158" y="854"></point>
      <point x="188" y="880"></point>
      <point x="218" y="880" type="curve" smooth="yes"></point>
      <point x="244" y="880"></point>
      <point x="375" y="748"></point>
      <point x="407" y="721" type="curve"></point>
      <point x="463" y="750"></point>
      <point x="505" y="866"></point>
      <point x="580" y="866" type="curve" smooth="yes"></point>
      <point x="608" y="866"></point>
      <point x="634" y="839"></point>
      <point x="634" y="811" type="curve" smooth="yes"></point>
      <point x="634" y="745"></point>
      <point x="496" y="707"></point>
      <point x="496" y="643" type="curve" smooth="yes"></point>
      <point x="496" y="583"></point>
      <point x="655" y="539"></point>
      <point x="655" y="473" type="curve" smooth="yes"></point>
      <point x="655" y="435"></point>
      <point x="620" y="399"></point>
      <point x="582" y="399" type="curve"></point>
    </contour>
  </outline>
</glyph>
<glyph name="Thorn" format="1">
  <advance width="756"></advance>
  <unicode hex="00DE"></unicode>
  <outline>
    <contour>
      <point x="457" y="948" type="curve" smooth="yes"></point>
      <point x="457" y="1117"></point>
      <point x="433" y="1147"></point>
      <point x="304" y="1249" type="curve"></point>
      <point x="298" y="1249" type="line"></point>
      <point x="298" y="1033"></point>
      <point x="302" y="817"></point>
      <point x="302" y="601" type="curve"></point>
      <point x="406" y="699"></point>
      <point x="457" y="804"></point>
    </contour>
    <contour>
      <point x="184" y="1297" type="curve"></point>
      <point x="182" y="1487" type="line" smooth="yes"></point>
      <point x="182" y="1522"></point>
      <point x="194" y="1548"></point>
      <point x="233" y="1548" type="curve" smooth="yes"></point>
      <point x="293" y="1548"></point>
      <point x="303" y="1483"></point>
      <point x="303" y="1424" type="curve" smooth="yes"></point>
      <point x="303" y="1396"></point>
      <point x="301" y="1370"></point>
      <point x="301" y="1353" type="curve"></point>
      <point x="482" y="1327"></point>
      <point x="563" y="1128"></point>
      <point x="563" y="965" type="curve" smooth="yes"></point>
      <point x="563" y="773"></point>
      <point x="481" y="595"></point>
      <point x="307" y="502" type="curve"></point>
      <point x="308" y="359"></point>
      <point x="323" y="217"></point>
      <point x="323" y="74" type="curve" smooth="yes"></point>
      <point x="323" y="29"></point>
      <point x="306" y="-11"></point>
      <point x="255" y="-11" type="curve" smooth="yes"></point>
      <point x="219" y="-11"></point>
      <point x="206" y="29"></point>
      <point x="206" y="58" type="curve" smooth="yes"></point>
      <point x="206" y="471"></point>
      <point x="184" y="884"></point>
    </contour>
  </outline>
</glyph>
<glyph name="ae" format="1">
  <advance width="879"/>
  <unicode hex="00E6"/>
  <outline>
    <contour>
      <point x="493" y="-13" type="curve" smooth="yes"/>
      <point x="477" y="-13"/>
      <point x="451" y="-1"/>
      <point x="451" y="19" type="curve" smooth="yes"/>
      <point x="451" y="96"/>
      <point x="467" y="175"/>
      <point x="467" y="253" type="curve" smooth="yes"/>
      <point x="467" y="366"/>
      <point x="457" y="480"/>
      <point x="457" y="593" type="curve"/>
      <point x="398" y="588"/>
      <point x="337" y="590"/>
      <point x="280" y="571" type="curve"/>
      <point x="179" y="226" type="line" smooth="yes"/>
      <point x="165" y="177"/>
      <point x="152" y="1"/>
      <point x="84" y="1" type="curve" smooth="yes"/>
      <point x="61" y="1"/>
      <point x="44" y="27"/>
      <point x="44" y="48" type="curve" smooth="yes"/>
      <point x="44" y="246"/>
      <point x="316" y="949"/>
      <point x="396" y="1180" type="curve" smooth="yes"/>
      <point x="419" y="1247"/>
      <point x="427" y="1332"/>
      <point x="512" y="1344" type="curve" smooth="yes"/>
      <point x="565" y="1351"/>
      <point x="616" y="1354"/>
      <point x="670" y="1354" type="curve" smooth="yes"/>
      <point x="707" y="1354"/>
      <point x="757" y="1345"/>
      <point x="757" y="1298" type="curve" smooth="yes"/>
      <point x="757" y="1292" type="line"/>
      <point x="736" y="1250" type="line"/>
      <point x="672" y="1240"/>
      <point x="607" y="1240"/>
      <point x="542" y="1240" type="curve"/>
      <point x="544" y="1149"/>
      <point x="556" y="1058"/>
      <point x="556" y="966" type="curve" smooth="yes"/>
      <point x="556" y="869"/>
      <point x="550" y="773"/>
      <point x="550" y="676" type="curve"/>
      <point x="603" y="678"/>
      <point x="655" y="685"/>
      <point x="708" y="685" type="curve"/>
      <point x="750" y="647" type="line"/>
      <point x="750" y="602"/>
      <point x="691" y="597"/>
      <point x="650" y="597" type="curve" smooth="yes"/>
      <point x="628" y="597" type="line" smooth="yes"/>
      <point x="549" y="598" type="line"/>
      <point x="550" y="426"/>
      <point x="555" y="254"/>
      <point x="555" y="82" type="curve"/>
      <point x="631" y="83"/>
      <point x="706" y="103"/>
      <point x="782" y="103" type="curve" smooth="yes"/>
      <point x="811" y="103"/>
      <point x="850" y="87"/>
      <point x="850" y="53" type="curve" smooth="yes"/>
      <point x="850" y="-7"/>
      <point x="681" y="-14"/>
      <point x="573" y="-14" type="curve" smooth="yes"/>
      <point x="537" y="-14"/>
      <point x="507" y="-13"/>
    </contour>
    <contour>
      <point x="453" y="666" type="curve"/>
      <point x="455" y="762"/>
      <point x="461" y="857"/>
      <point x="461" y="953" type="curve" smooth="yes"/>
      <point x="461" y="996"/>
      <point x="461" y="1040"/>
      <point x="459" y="1083" type="curve"/>
      <point x="401" y="940"/>
      <point x="340" y="797"/>
      <point x="300" y="648" type="curve"/>
      <point x="351" y="650"/>
      <point x="403" y="655"/>
    </contour>
  </outline>
</glyph>
<glyph name="eth" format="1">
  <advance width="756"></advance>
  <unicode hex="00F0"></unicode>
  <outline>
    <contour>
      <point x="351" y="72" type="curve" smooth="yes"></point>
      <point x="426" y="72"></point>
      <point x="417" y="160"></point>
      <point x="421" y="211" type="curve" smooth="yes"></point>
      <point x="433" y="370"></point>
      <point x="442" y="518"></point>
      <point x="442" y="681" type="curve" smooth="yes"></point>
      <point x="442" y="761"></point>
      <point x="435" y="853"></point>
      <point x="383" y="885" type="curve"></point>
      <point x="284" y="859"></point>
      <point x="284" y="472"></point>
      <point x="284" y="390" type="curve" smooth="yes"></point>
      <point x="284" y="378"></point>
      <point x="283" y="354"></point>
      <point x="283" y="325" type="curve" smooth="yes"></point>
      <point x="283" y="228"></point>
      <point x="290" y="72"></point>
    </contour>
    <contour>
      <point x="590" y="1326" type="curve" smooth="yes"></point>
      <point x="590" y="1289"></point>
      <point x="511" y="1272"></point>
      <point x="485" y="1267" type="curve"></point>
      <point x="529" y="1062"></point>
      <point x="537" y="850"></point>
      <point x="537" y="641" type="curve" smooth="yes"></point>
      <point x="537" y="522"></point>
      <point x="528" y="402"></point>
      <point x="528" y="283" type="curve" smooth="yes"></point>
      <point x="528" y="159"></point>
      <point x="521" y="-15"></point>
      <point x="356" y="-15" type="curve" smooth="yes"></point>
      <point x="195" y="-15"></point>
      <point x="185" y="173"></point>
      <point x="185" y="305" type="curve"></point>
      <point x="185" y="305"></point>
      <point x="182" y="340"></point>
      <point x="182" y="400" type="curve" smooth="yes"></point>
      <point x="182" y="581"></point>
      <point x="206" y="956"></point>
      <point x="396" y="956" type="curve" smooth="yes"></point>
      <point x="404" y="956"></point>
      <point x="413" y="955"></point>
      <point x="422" y="954" type="curve"></point>
      <point x="409" y="1053"></point>
      <point x="395" y="1153"></point>
      <point x="374" y="1251" type="curve"></point>
      <point x="318" y="1245"></point>
      <point x="261" y="1242"></point>
      <point x="205" y="1242" type="curve" smooth="yes"></point>
      <point x="192" y="1242"></point>
      <point x="188" y="1265"></point>
      <point x="188" y="1272" type="curve" smooth="yes"></point>
      <point x="188" y="1319"></point>
      <point x="322" y="1336"></point>
      <point x="354" y="1340" type="curve"></point>
      <point x="345" y="1374"></point>
      <point x="326" y="1450"></point>
      <point x="298" y="1473" type="curve"></point>
      <point x="265" y="1478"></point>
      <point x="216" y="1499"></point>
      <point x="216" y="1539" type="curve" smooth="yes"></point>
      <point x="216" y="1565"></point>
      <point x="246" y="1582"></point>
      <point x="269" y="1582" type="curve" smooth="yes"></point>
      <point x="382" y="1582"></point>
      <point x="437" y="1441"></point>
      <point x="463" y="1351" type="curve"></point>
      <point x="500" y="1353"></point>
      <point x="536" y="1355"></point>
      <point x="573" y="1355" type="curve" smooth="yes"></point>
      <point x="586" y="1355"></point>
      <point x="590" y="1333"></point>
    </contour>
  </outline>
</glyph>
<glyph name="divide" format="1">
  <advance width="900"></advance>
  <unicode hex="00F7"></unicode>
  <outline>
    <contour>
      <point x="512" y="428" type="curve" smooth="yes"></point>
      <point x="512" y="389"></point>
      <point x="481" y="369"></point>
      <point x="445" y="369" type="curve" smooth="yes"></point>
      <point x="405" y="369"></point>
      <point x="371" y="398"></point>
      <point x="371" y="439" type="curve" smooth="yes"></point>
      <point x="371" y="477"></point>
      <point x="401" y="510"></point>
      <point x="440" y="510" type="curve" smooth="yes"></point>
      <point x="482" y="510"></point>
      <point x="512" y="467"></point>
    </contour>
    <contour>
      <point x="443" y="789" type="curve" smooth="yes"></point>
      <point x="404" y="789"></point>
      <point x="368" y="823"></point>
      <point x="368" y="862" type="curve" smooth="yes"></point>
      <point x="368" y="899"></point>
      <point x="405" y="930"></point>
      <point x="441" y="930" type="curve" smooth="yes"></point>
      <point x="483" y="930"></point>
      <point x="512" y="893"></point>
      <point x="512" y="853" type="curve" smooth="yes"></point>
      <point x="512" y="817"></point>
      <point x="478" y="789"></point>
    </contour>
    <contour>
      <point x="158" y="655" type="curve" smooth="yes"></point>
      <point x="158" y="683"></point>
      <point x="176" y="701"></point>
      <point x="204" y="701" type="curve" smooth="yes"></point>
      <point x="505" y="701" type="line" smooth="yes"></point>
      <point x="547" y="701"></point>
      <point x="589" y="708"></point>
      <point x="631" y="708" type="curve" smooth="yes"></point>
      <point x="673" y="708"></point>
      <point x="730" y="701"></point>
      <point x="730" y="647" type="curve" smooth="yes"></point>
      <point x="730" y="613"></point>
      <point x="702" y="600"></point>
      <point x="672" y="600" type="curve" smooth="yes"></point>
      <point x="528" y="600"></point>
      <point x="383" y="590"></point>
      <point x="240" y="590" type="curve" smooth="yes"></point>
      <point x="195" y="590"></point>
      <point x="158" y="604"></point>
    </contour>
  </outline>
</glyph>
<glyph name="oslash" format="1">
  <advance width="741"/>
  <unicode hex="00F8"/>
  <outline>
    <contour>
      <point x="192" y="-227" type="line"/>
      <point x="230" y="32" type="line"/>
      <point x="120" y="166"/>
      <point x="103" y="463"/>
      <point x="103" y="626" type="curve" smooth="yes"/>
      <point x="103" y="658"/>
      <point x="105" y="677"/>
      <point x="105" y="704" type="curve" smooth="yes"/>
      <point x="105" y="711"/>
      <point x="104" y="714"/>
      <point x="102" y="714" type="curve"/>
      <point x="102" y="751" type="line" smooth="yes"/>
      <point x="102" y="860"/>
      <point x="101" y="1378"/>
      <point x="256" y="1378" type="curve" smooth="yes"/>
      <point x="323" y="1378"/>
      <point x="379" y="1364"/>
      <point x="426" y="1338" type="curve"/>
      <point x="462" y="1560" type="line"/>
      <point x="523" y="1560" type="line"/>
      <point x="483" y="1296" type="line"/>
      <point x="594" y="1194"/>
      <point x="636" y="1008"/>
      <point x="636" y="798" type="curve" smooth="yes"/>
      <point x="636" y="783" type="line" smooth="yes"/>
      <point x="636" y="706"/>
      <point x="640" y="628"/>
      <point x="640" y="551" type="curve" smooth="yes"/>
      <point x="640" y="368"/>
      <point x="625" y="-38"/>
      <point x="367" y="-38" type="curve" smooth="yes"/>
      <point x="337" y="-38"/>
      <point x="310" y="-31"/>
      <point x="286" y="-17" type="curve"/>
      <point x="242" y="-274" type="line"/>
    </contour>
    <contour>
      <point x="302" y="89" type="line"/>
      <point x="318" y="63"/>
      <point x="337" y="47"/>
      <point x="359" y="47" type="curve" smooth="yes"/>
      <point x="516" y="47"/>
      <point x="530" y="454"/>
      <point x="530" y="564" type="curve" smooth="yes"/>
      <point x="530" y="723"/>
      <point x="504" y="882"/>
      <point x="503" y="1041" type="curve"/>
      <point x="503" y="1077" type="line"/>
      <point x="502" y="1117"/>
      <point x="490" y="1158"/>
      <point x="468" y="1192" type="curve"/>
    </contour>
    <contour>
      <point x="258" y="215" type="curve"/>
      <point x="412" y="1247" type="line"/>
      <point x="389" y="1261"/>
      <point x="363" y="1269"/>
      <point x="334" y="1269" type="curve" smooth="yes"/>
      <point x="236" y="1269"/>
      <point x="222" y="1141"/>
      <point x="222" y="1027" type="curve" smooth="yes"/>
      <point x="222" y="981"/>
      <point x="224" y="937"/>
      <point x="224" y="906" type="curve" smooth="yes"/>
      <point x="224" y="843"/>
      <point x="214" y="780"/>
      <point x="214" y="717" type="curve" smooth="yes"/>
      <point x="214" y="650"/>
      <point x="219" y="391"/>
    </contour>
  </outline>
</glyph>
<glyph name="thorn" format="1">
  <advance width="756"></advance>
  <unicode hex="00FE"></unicode>
  <outline>
    <contour>
      <point x="457" y="828" type="curve" smooth="yes"></point>
      <point x="457" y="998"></point>
      <point x="433" y="1027"></point>
      <point x="304" y="1129" type="curve"></point>
      <point x="298" y="1129" type="line"></point>
      <point x="298" y="943"></point>
      <point x="302" y="757"></point>
      <point x="302" y="571" type="curve"></point>
      <point x="396" y="635"></point>
      <point x="457" y="710"></point>
    </contour>
    <contour>
      <point x="184" y="1178" type="curve"></point>
      <point x="182" y="1487" type="line" smooth="yes"></point>
      <point x="182" y="1522"></point>
      <point x="194" y="1548"></point>
      <point x="233" y="1548" type="curve" smooth="yes"></point>
      <point x="295" y="1548"></point>
      <point x="308" y="1463"></point>
      <point x="308" y="1380" type="curve" smooth="yes"></point>
      <point x="308" y="1318"></point>
      <point x="301" y="1258"></point>
      <point x="301" y="1233" type="curve"></point>
      <point x="482" y="1207"></point>
      <point x="563" y="1008"></point>
      <point x="563" y="845" type="curve" smooth="yes"></point>
      <point x="563" y="670"></point>
      <point x="465" y="540"></point>
      <point x="307" y="472" type="curve"></point>
      <point x="308" y="339"></point>
      <point x="323" y="207"></point>
      <point x="323" y="74" type="curve" smooth="yes"></point>
      <point x="323" y="29"></point>
      <point x="306" y="-11"></point>
      <point x="255" y="-11" type="curve" smooth="yes"></point>
      <point x="219" y="-11"></point>
      <point x="206" y="28"></point>
      <point x="206" y="58" type="curve" smooth="yes"></point>
      <point x="206" y="432"></point>
      <point x="184" y="805"></point>
    </contour>
  </outline>
</glyph>
<glyph name="dcroat" format="1">
  <advance width="882"></advance>
  <unicode hex="0111"></unicode>
  <outline>
    <contour>
      <point x="232" y="901" type="curve" smooth="yes"></point>
      <point x="232" y="1027"></point>
      <point x="208" y="1184"></point>
      <point x="208" y="1286" type="curve" smooth="yes"></point>
      <point x="208" y="1322"></point>
      <point x="246" y="1353"></point>
      <point x="280" y="1353" type="curve" smooth="yes"></point>
      <point x="530" y="1353"></point>
      <point x="699" y="1054"></point>
      <point x="699" y="808" type="curve" smooth="yes"></point>
      <point x="699" y="778"></point>
      <point x="695" y="741"></point>
      <point x="695" y="705" type="curve" smooth="yes"></point>
      <point x="695" y="592" type="line" smooth="yes"></point>
      <point x="695" y="340"></point>
      <point x="679" y="119"></point>
      <point x="426" y="-12" type="curve"></point>
      <point x="278" y="-12" type="line" smooth="yes"></point>
      <point x="228" y="-12"></point>
      <point x="226" y="190"></point>
      <point x="226" y="256" type="curve" smooth="yes"></point>
      <point x="226" y="257"></point>
      <point x="228" y="534"></point>
      <point x="230" y="673" type="curve"></point>
      <point x="156" y="676"></point>
      <point x="94" y="685"></point>
      <point x="94" y="707" type="curve" smooth="yes"></point>
      <point x="94" y="748"></point>
      <point x="155" y="751"></point>
      <point x="184" y="751" type="curve" smooth="yes"></point>
      <point x="256" y="751"></point>
      <point x="232" y="835"></point>
    </contour>
    <contour>
      <point x="346" y="755" type="curve"></point>
      <point x="415" y="754"></point>
      <point x="486" y="743"></point>
      <point x="486" y="701" type="curve" smooth="yes"></point>
      <point x="486" y="680"></point>
      <point x="450" y="676"></point>
      <point x="420" y="676" type="curve" smooth="yes"></point>
      <point x="410" y="676"></point>
      <point x="382" y="673"></point>
      <point x="349" y="672" type="curve"></point>
      <point x="358" y="495"></point>
      <point x="369" y="318"></point>
      <point x="369" y="141" type="curve" smooth="yes"></point>
      <point x="369" y="92" type="line"></point>
      <point x="573" y="92"></point>
      <point x="591" y="480"></point>
      <point x="591" y="612" type="curve" smooth="yes"></point>
      <point x="591" y="784"></point>
      <point x="585" y="1231"></point>
      <point x="353" y="1258" type="curve"></point>
      <point x="340" y="1188"></point>
      <point x="338" y="1116"></point>
      <point x="338" y="1045" type="curve" smooth="yes"></point>
      <point x="338" y="948"></point>
      <point x="342" y="852"></point>
    </contour>
  </outline>
</glyph>
<glyph name="Hbar" format="1">
  <advance width="810"></advance>
  <unicode hex="0126"></unicode>
  <outline>
    <contour>
      <point x="394" y="1265" type="curve" smooth="yes"></point>
      <point x="355" y="1265"></point>
      <point x="315" y="1262"></point>
      <point x="279" y="1261" type="curve"></point>
      <point x="283" y="1153"></point>
      <point x="291" y="1046"></point>
      <point x="291" y="939" type="curve" smooth="yes"></point>
      <point x="291" y="914"></point>
      <point x="289" y="888"></point>
      <point x="289" y="862" type="curve" smooth="yes"></point>
      <point x="289" y="844"></point>
      <point x="290" y="827"></point>
      <point x="293" y="809" type="curve"></point>
      <point x="360" y="811"></point>
      <point x="425" y="822"></point>
      <point x="492" y="824" type="curve"></point>
      <point x="491" y="971"></point>
      <point x="483" y="1119"></point>
      <point x="478" y="1266" type="curve"></point>
      <point x="454" y="1265"></point>
      <point x="424" y="1265"></point>
    </contour>
    <contour>
      <point x="474" y="1496" type="curve"></point>
      <point x="473" y="1511" type="line"></point>
      <point x="473" y="1541"></point>
      <point x="479" y="1544"></point>
      <point x="493" y="1544" type="curve" smooth="yes"></point>
      <point x="500" y="1544" type="line" smooth="yes"></point>
      <point x="533" y="1544"></point>
      <point x="584" y="1542"></point>
      <point x="584" y="1493" type="curve" smooth="yes"></point>
      <point x="584" y="1314" type="line"></point>
      <point x="599" y="1307"></point>
      <point x="608" y="1297"></point>
      <point x="608" y="1284" type="curve" smooth="yes"></point>
      <point x="608" y="1265"></point>
      <point x="598" y="1262"></point>
      <point x="585" y="1262" type="curve"></point>
      <point x="591" y="855"></point>
      <point x="623" y="448"></point>
      <point x="623" y="43" type="curve" smooth="yes"></point>
      <point x="623" y="10"></point>
      <point x="600" y="-31"></point>
      <point x="563" y="-31" type="curve" smooth="yes"></point>
      <point x="524" y="-31"></point>
      <point x="511" y="4"></point>
      <point x="511" y="37" type="curve" smooth="yes"></point>
      <point x="511" y="278"></point>
      <point x="506" y="519"></point>
      <point x="493" y="759" type="curve"></point>
      <point x="471" y="763"></point>
      <point x="448" y="769"></point>
      <point x="425" y="769" type="curve" smooth="yes"></point>
      <point x="384" y="769"></point>
      <point x="342" y="769"></point>
      <point x="304" y="753" type="curve"></point>
      <point x="305" y="521"></point>
      <point x="338" y="291"></point>
      <point x="338" y="59" type="curve" smooth="yes"></point>
      <point x="338" y="34"></point>
      <point x="322" y="5"></point>
      <point x="294" y="5" type="curve" smooth="yes"></point>
      <point x="264" y="5"></point>
      <point x="253" y="16"></point>
      <point x="238" y="41" type="curve" smooth="yes"></point>
      <point x="213" y="83"></point>
      <point x="220" y="514"></point>
      <point x="214" y="602" type="curve" smooth="yes"></point>
      <point x="198" y="824"></point>
      <point x="185" y="1046"></point>
      <point x="180" y="1269" type="curve"></point>
      <point x="171" y="1274"></point>
      <point x="166" y="1281"></point>
      <point x="166" y="1291" type="curve" smooth="yes"></point>
      <point x="166" y="1303"></point>
      <point x="171" y="1311"></point>
      <point x="179" y="1318" type="curve"></point>
      <point x="177" y="1385"></point>
      <point x="176" y="1453"></point>
      <point x="176" y="1520" type="curve" smooth="yes"></point>
      <point x="176" y="1540"></point>
      <point x="215" y="1554"></point>
      <point x="231" y="1554" type="curve" smooth="yes"></point>
      <point x="251" y="1554"></point>
      <point x="284" y="1536"></point>
      <point x="284" y="1515" type="curve" smooth="yes"></point>
      <point x="284" y="1467"></point>
      <point x="277" y="1411"></point>
      <point x="277" y="1360" type="curve" smooth="yes"></point>
      <point x="277" y="1335" type="line"></point>
      <point x="305" y="1336"></point>
      <point x="350" y="1339"></point>
      <point x="400" y="1339" type="curve" smooth="yes"></point>
      <point x="425" y="1339"></point>
      <point x="451" y="1338"></point>
      <point x="476" y="1337" type="curve"></point>
      <point x="474" y="1390"></point>
      <point x="474" y="1443"></point>
    </contour>
  </outline>
</glyph>
<glyph name="hbar" format="1">
  <advance width="810"></advance>
  <unicode hex="0127"></unicode>
  <outline>
    <contour>
      <point x="497" y="738" type="curve" smooth="yes"></point>
      <point x="497" y="847"></point>
      <point x="488" y="957"></point>
      <point x="481" y="1066" type="curve"></point>
      <point x="455" y="1065"></point>
      <point x="425" y="1065"></point>
      <point x="394" y="1065" type="curve" smooth="yes"></point>
      <point x="367" y="1065"></point>
      <point x="339" y="1064"></point>
      <point x="312" y="1062" type="curve"></point>
      <point x="309" y="949"></point>
      <point x="306" y="835"></point>
      <point x="306" y="722" type="curve"></point>
      <point x="343" y="712"></point>
      <point x="381" y="712"></point>
      <point x="418" y="712" type="curve" smooth="yes"></point>
      <point x="492" y="712" type="line"></point>
      <point x="496" y="719"></point>
      <point x="497" y="729"></point>
    </contour>
    <contour>
      <point x="608" y="1084" type="curve" smooth="yes"></point>
      <point x="608" y="1069"></point>
      <point x="602" y="1063"></point>
      <point x="593" y="1062" type="curve"></point>
      <point x="602" y="650"></point>
      <point x="626" y="178"></point>
      <point x="628" y="62" type="curve" smooth="yes"></point>
      <point x="628" y="20"></point>
      <point x="591" y="0"></point>
      <point x="557" y="0" type="curve" smooth="yes"></point>
      <point x="530" y="0"></point>
      <point x="506" y="13"></point>
      <point x="505" y="38" type="curve" smooth="yes"></point>
      <point x="501" y="165"></point>
      <point x="494" y="366"></point>
      <point x="494" y="548" type="curve"></point>
      <point x="490" y="556" type="line"></point>
      <point x="491" y="576"></point>
      <point x="493" y="595"></point>
      <point x="493" y="615" type="curve" smooth="yes"></point>
      <point x="493" y="621"></point>
      <point x="492" y="628"></point>
      <point x="492" y="634" type="curve"></point>
      <point x="481" y="636" type="line"></point>
      <point x="468" y="633"></point>
      <point x="456" y="632"></point>
      <point x="444" y="632" type="curve" smooth="yes"></point>
      <point x="399" y="632"></point>
      <point x="359" y="649"></point>
      <point x="312" y="651" type="curve"></point>
      <point x="311" y="576"></point>
      <point x="306" y="500"></point>
      <point x="306" y="425" type="curve"></point>
      <point x="312" y="416" type="line"></point>
      <point x="312" y="304"></point>
      <point x="324" y="191"></point>
      <point x="324" y="79" type="curve" smooth="yes"></point>
      <point x="324" y="44"></point>
      <point x="306" y="5"></point>
      <point x="266" y="5" type="curve" smooth="yes"></point>
      <point x="206" y="5"></point>
      <point x="194" y="134"></point>
      <point x="194" y="283" type="curve" smooth="yes"></point>
      <point x="194" y="391"></point>
      <point x="200" y="509"></point>
      <point x="200" y="595" type="curve" smooth="yes"></point>
      <point x="200" y="643"></point>
      <point x="198" y="681"></point>
      <point x="192" y="702" type="curve"></point>
      <point x="197" y="712" type="line"></point>
      <point x="200" y="752"></point>
      <point x="205" y="792"></point>
      <point x="205" y="832" type="curve" smooth="yes"></point>
      <point x="205" y="909"></point>
      <point x="201" y="986"></point>
      <point x="198" y="1064" type="curve"></point>
      <point x="178" y="1068"></point>
      <point x="166" y="1076"></point>
      <point x="166" y="1091" type="curve" smooth="yes"></point>
      <point x="166" y="1109"></point>
      <point x="178" y="1121"></point>
      <point x="195" y="1127" type="curve"></point>
      <point x="192" y="1182"></point>
      <point x="191" y="1238"></point>
      <point x="191" y="1294" type="curve" smooth="yes"></point>
      <point x="191" y="1325"></point>
      <point x="217" y="1355"></point>
      <point x="249" y="1355" type="curve" smooth="yes"></point>
      <point x="307" y="1355"></point>
      <point x="314" y="1276"></point>
      <point x="314" y="1233" type="curve" smooth="yes"></point>
      <point x="314" y="1201"></point>
      <point x="314" y="1169"></point>
      <point x="313" y="1137" type="curve"></point>
      <point x="338" y="1138"></point>
      <point x="368" y="1139"></point>
      <point x="400" y="1139" type="curve" smooth="yes"></point>
      <point x="425" y="1139"></point>
      <point x="451" y="1138"></point>
      <point x="476" y="1137" type="curve"></point>
      <point x="472" y="1198"></point>
      <point x="470" y="1259"></point>
      <point x="470" y="1320" type="curve" smooth="yes"></point>
      <point x="470" y="1351"></point>
      <point x="499" y="1374"></point>
      <point x="529" y="1374" type="curve" smooth="yes"></point>
      <point x="550" y="1374"></point>
      <point x="569" y="1362"></point>
      <point x="589" y="1356" type="curve"></point>
      <point x="589" y="1280"></point>
      <point x="590" y="1197"></point>
      <point x="592" y="1110" type="curve"></point>
      <point x="602" y="1103"></point>
      <point x="608" y="1094"></point>
    </contour>
  </outline>
</glyph>
<glyph name="lslash" format="1">
  <advance width="467"/>
  <unicode hex="0142"/>
  <outline>
    <contour>
      <point x="392" y="771" type="curve" smooth="yes"/>
      <point x="392" y="723"/>
      <point x="311" y="714"/>
      <point x="196" y="686" type="curve"/>
      <point x="185" y="650"/>
      <point x="184" y="609"/>
      <point x="184" y="570" type="curve" smooth="yes"/>
      <point x="184" y="545" type="line" smooth="yes"/>
      <point x="184" y="435"/>
      <point x="176" y="333"/>
      <point x="176" y="219" type="curve" smooth="yes"/>
      <point x="176" y="154"/>
      <point x="181" y="78"/>
      <point x="183" y="78" type="curve" smooth="yes"/>
      <point x="216" y="78"/>
      <point x="273" y="81"/>
      <point x="330" y="81" type="curve" smooth="yes"/>
      <point x="384" y="81"/>
      <point x="440" y="72"/>
      <point x="440" y="21" type="curve" smooth="yes"/>
      <point x="440" y="-11"/>
      <point x="405" y="-29"/>
      <point x="378" y="-33" type="curve"/>
      <point x="319" y="-14"/>
      <point x="257" y="-9"/>
      <point x="195" y="-9" type="curve"/>
      <point x="174" y="-21"/>
      <point x="149" y="-28"/>
      <point x="125" y="-28" type="curve" smooth="yes"/>
      <point x="91" y="-28"/>
      <point x="67" y="7"/>
      <point x="67" y="39" type="curve" smooth="yes"/>
      <point x="67" y="45"/>
      <point x="78" y="446"/>
      <point x="86" y="650" type="curve"/>
      <point x="36" y="626"/>
      <point x="-3" y="618"/>
      <point x="-23" y="618" type="curve" smooth="yes"/>
      <point x="-36" y="618"/>
      <point x="-50" y="634"/>
      <point x="-50" y="657" type="curve" smooth="yes"/>
      <point x="-50" y="697"/>
      <point x="14" y="721"/>
      <point x="89" y="736" type="curve"/>
      <point x="91" y="809"/>
      <point x="93" y="881"/>
      <point x="93" y="954" type="curve" smooth="yes"/>
      <point x="93" y="969" type="line"/>
      <point x="87" y="1033"/>
      <point x="81" y="1097"/>
      <point x="81" y="1161" type="curve" smooth="yes"/>
      <point x="81" y="1207"/>
      <point x="82" y="1355"/>
      <point x="152" y="1355" type="curve" smooth="yes"/>
      <point x="180" y="1355"/>
      <point x="204" y="1332"/>
      <point x="204" y="1304" type="curve" smooth="yes"/>
      <point x="204" y="1252"/>
      <point x="190" y="1200"/>
      <point x="190" y="1148" type="curve" smooth="yes"/>
      <point x="190" y="1024"/>
      <point x="194" y="899"/>
      <point x="195" y="775" type="curve"/>
      <point x="267" y="800"/>
      <point x="331" y="807"/>
      <point x="355" y="807" type="curve" smooth="yes"/>
      <point x="373" y="807"/>
      <point x="392" y="793"/>
    </contour>
  </outline>
</glyph>
<glyph name="Eng" format="1">
  <advance width="972"></advance>
  <unicode hex="014A"></unicode>
  <outline>
    <contour>
      <point x="657" y="-113" type="curve" smooth="yes"></point>
      <point x="657" y="-65"></point>
      <point x="658" y="-17"></point>
      <point x="658" y="32" type="curve"></point>
      <point x="565" y="234"></point>
      <point x="389" y="887"></point>
      <point x="286" y="1298" type="curve"></point>
      <point x="286" y="626" type="line" smooth="yes"></point>
      <point x="286" y="431"></point>
      <point x="315" y="237"></point>
      <point x="315" y="42" type="curve" smooth="yes"></point>
      <point x="315" y="16"></point>
      <point x="276" y="-2"></point>
      <point x="243" y="-2" type="curve" smooth="yes"></point>
      <point x="219" y="-2"></point>
      <point x="198" y="7"></point>
      <point x="198" y="30" type="curve" smooth="yes"></point>
      <point x="198" y="65"></point>
      <point x="208" y="109"></point>
      <point x="208" y="177" type="curve" smooth="yes"></point>
      <point x="208" y="371"></point>
      <point x="182" y="688"></point>
      <point x="182" y="812" type="curve" smooth="yes"></point>
      <point x="182" y="1073" type="line" smooth="yes"></point>
      <point x="182" y="1198"></point>
      <point x="196" y="1324"></point>
      <point x="196" y="1449" type="curve" smooth="yes"></point>
      <point x="196" y="1462" type="line" smooth="yes"></point>
      <point x="196" y="1508"></point>
      <point x="204" y="1564"></point>
      <point x="241" y="1564" type="curve" smooth="yes"></point>
      <point x="365" y="1564"></point>
      <point x="654" y="228"></point>
      <point x="655" y="225" type="curve"></point>
      <point x="655" y="463"></point>
      <point x="663" y="701"></point>
      <point x="663" y="939" type="curve" smooth="yes"></point>
      <point x="663" y="1545" type="line"></point>
      <point x="671" y="1580"></point>
      <point x="697" y="1596"></point>
      <point x="730" y="1596" type="curve" smooth="yes"></point>
      <point x="775" y="1596"></point>
      <point x="785" y="1553"></point>
      <point x="785" y="1516" type="curve" smooth="yes"></point>
      <point x="785" y="1504" type="line"></point>
      <point x="776" y="1485"></point>
      <point x="760" y="1465"></point>
      <point x="760" y="1444" type="curve" smooth="yes"></point>
      <point x="760" y="42" type="line" smooth="yes"></point>
      <point x="760" y="-271"></point>
      <point x="735" y="-236"></point>
      <point x="549" y="-388" type="curve"></point>
      <point x="509" y="-388"></point>
      <point x="475" y="-369"></point>
      <point x="475" y="-325" type="curve" smooth="yes"></point>
      <point x="475" y="-226"></point>
      <point x="657" y="-240"></point>
    </contour>
  </outline>
</glyph>
<glyph name="eng" format="1">
  <advance width="827"/>
  <unicode hex="014B"/>
  <outline>
    <contour>
      <point x="603" y="189" type="curve"/>
      <point x="636" y="534"/>
      <point x="644" y="881"/>
      <point x="644" y="1228" type="curve" smooth="yes"/>
      <point x="644" y="1244"/>
      <point x="641" y="1264"/>
      <point x="641" y="1283" type="curve" smooth="yes"/>
      <point x="641" y="1315"/>
      <point x="649" y="1344"/>
      <point x="692" y="1344" type="curve" smooth="yes"/>
      <point x="734" y="1344"/>
      <point x="750" y="1302"/>
      <point x="750" y="1264" type="curve" smooth="yes"/>
      <point x="750" y="1109" type="line"/>
      <point x="748" y="636"/>
      <point x="771" y="-512"/>
      <point x="455" y="-512" type="curve" smooth="yes"/>
      <point x="415" y="-512"/>
      <point x="381" y="-493"/>
      <point x="381" y="-449" type="curve" smooth="yes"/>
      <point x="381" y="-350"/>
      <point x="538" y="-454"/>
      <point x="563" y="-237" type="curve" smooth="yes"/>
      <point x="572" y="-159"/>
      <point x="571" y="-80"/>
      <point x="579" y="-1" type="curve"/>
      <point x="520" y="136"/>
      <point x="230" y="1021"/>
      <point x="176" y="1145" type="curve"/>
      <point x="176" y="114" type="line"/>
      <point x="183" y="99"/>
      <point x="197" y="83"/>
      <point x="197" y="66" type="curve" smooth="yes"/>
      <point x="197" y="32"/>
      <point x="169" y="2"/>
      <point x="135" y="2" type="curve" smooth="yes"/>
      <point x="76" y="2"/>
      <point x="68" y="84"/>
      <point x="68" y="127" type="curve" smooth="yes"/>
      <point x="68" y="361"/>
      <point x="64" y="595"/>
      <point x="64" y="829" type="curve" smooth="yes"/>
      <point x="64" y="956"/>
      <point x="76" y="1084"/>
      <point x="76" y="1211" type="curve" smooth="yes"/>
      <point x="76" y="1274"/>
      <point x="97" y="1322"/>
      <point x="151" y="1362" type="curve"/>
      <point x="151" y="1349" type="line"/>
      <point x="156" y="1352"/>
      <point x="161" y="1354"/>
      <point x="166" y="1354" type="curve" smooth="yes"/>
      <point x="306" y="1354"/>
      <point x="548" y="324"/>
    </contour>
  </outline>
</glyph>
